<svg id="Layer_1" data-name="Layer 1" xmlns="http://www.w3.org/2000/svg" xmlns:xlink="http://www.w3.org/1999/xlink" viewBox="0 0 473.21 477.7"><defs><style>.cls-1{fill:url(#linear-gradient);}.cls-2{fill:url(#linear-gradient-2);}.cls-3{fill:url(#linear-gradient-3);}.cls-4{fill:url(#linear-gradient-4);}.cls-5{fill:url(#linear-gradient-5);}.cls-6{fill:url(#linear-gradient-6);}.cls-7{fill:url(#linear-gradient-7);}.cls-8{fill:url(#linear-gradient-8);}.cls-9{fill:url(#linear-gradient-9);}.cls-10{fill:url(#linear-gradient-10);}.cls-11{fill:url(#linear-gradient-11);}.cls-12{fill:url(#linear-gradient-12);}.cls-13{fill:url(#linear-gradient-13);}.cls-14{fill:url(#linear-gradient-14);}.cls-15{fill:url(#linear-gradient-15);}.cls-16{fill:url(#linear-gradient-16);}.cls-17{fill:url(#linear-gradient-17);}.cls-18{fill:url(#linear-gradient-18);}.cls-19{fill:url(#linear-gradient-19);}.cls-20{fill:url(#linear-gradient-20);}.cls-21{fill:url(#linear-gradient-21);}.cls-22{fill:url(#linear-gradient-22);}.cls-23{fill:url(#linear-gradient-23);}.cls-24{fill:url(#linear-gradient-24);}.cls-25{fill:url(#linear-gradient-25);}.cls-26{fill:url(#linear-gradient-26);}.cls-27{fill:url(#linear-gradient-27);}.cls-28{fill:#009bfb;}.cls-29{fill:url(#linear-gradient-28);}.cls-30{fill:url(#linear-gradient-29);}.cls-31{fill:url(#linear-gradient-30);}.cls-32{fill:url(#linear-gradient-31);}.cls-33{fill:url(#linear-gradient-32);}.cls-34{fill:url(#linear-gradient-33);}.cls-35{fill:url(#linear-gradient-34);}.cls-36{fill:url(#linear-gradient-35);}.cls-37{fill:url(#linear-gradient-36);}.cls-38{fill:url(#linear-gradient-37);}.cls-39{fill:url(#linear-gradient-38);}.cls-40{fill:url(#linear-gradient-39);}.cls-41{fill:url(#linear-gradient-40);}.cls-42{fill:url(#linear-gradient-41);}.cls-43{fill:url(#linear-gradient-42);}.cls-44{fill:url(#linear-gradient-43);}.cls-45{fill:url(#linear-gradient-44);}.cls-46{fill:url(#linear-gradient-45);}.cls-47{fill:url(#linear-gradient-46);}.cls-48{fill:url(#linear-gradient-47);}.cls-49{fill:url(#linear-gradient-48);}.cls-50{fill:url(#linear-gradient-49);}.cls-51{fill:url(#linear-gradient-50);}.cls-52{fill:url(#linear-gradient-51);}.cls-53{fill:url(#linear-gradient-52);}.cls-54{fill:url(#linear-gradient-53);}.cls-55{fill:url(#linear-gradient-54);}</style><linearGradient id="linear-gradient" x1="650.62" y1="792.78" x2="1161.37" y2="1072.9" gradientUnits="userSpaceOnUse"><stop offset="0" stop-color="#f0f"/><stop offset="1" stop-color="aqua"/></linearGradient><linearGradient id="linear-gradient-2" x1="657.96" y1="779.39" x2="1168.71" y2="1059.51" xlink:href="#linear-gradient"/><linearGradient id="linear-gradient-3" x1="647.03" y1="799.33" x2="1157.78" y2="1079.45" xlink:href="#linear-gradient"/><linearGradient id="linear-gradient-4" x1="666.16" y1="764.45" x2="1176.91" y2="1044.57" xlink:href="#linear-gradient"/><linearGradient id="linear-gradient-5" x1="628.81" y1="832.53" x2="1139.56" y2="1112.66" xlink:href="#linear-gradient"/><linearGradient id="linear-gradient-6" x1="664.67" y1="767.15" x2="1175.42" y2="1047.28" xlink:href="#linear-gradient"/><linearGradient id="linear-gradient-7" x1="651.23" y1="791.66" x2="1161.98" y2="1071.78" xlink:href="#linear-gradient"/><linearGradient id="linear-gradient-8" x1="657.85" y1="779.59" x2="1168.6" y2="1059.72" xlink:href="#linear-gradient"/><linearGradient id="linear-gradient-9" x1="652.37" y1="789.59" x2="1163.12" y2="1069.71" xlink:href="#linear-gradient"/><linearGradient id="linear-gradient-10" x1="660.2" y1="775.31" x2="1170.95" y2="1055.43" xlink:href="#linear-gradient"/><linearGradient id="linear-gradient-11" x1="664.14" y1="768.12" x2="1174.89" y2="1048.24" xlink:href="#linear-gradient"/><linearGradient id="linear-gradient-12" x1="667.15" y1="762.64" x2="1177.9" y2="1042.77" xlink:href="#linear-gradient"/><linearGradient id="linear-gradient-13" x1="659.87" y1="775.9" x2="1170.62" y2="1056.03" xlink:href="#linear-gradient"/><linearGradient id="linear-gradient-14" x1="674.25" y1="749.69" x2="1185" y2="1029.82" xlink:href="#linear-gradient"/><linearGradient id="linear-gradient-15" x1="669.46" y1="758.41" x2="1180.21" y2="1038.54" xlink:href="#linear-gradient"/><linearGradient id="linear-gradient-16" x1="681.82" y1="735.89" x2="1192.57" y2="1016.02" xlink:href="#linear-gradient"/><linearGradient id="linear-gradient-17" x1="615.78" y1="856.29" x2="1126.53" y2="1136.42" xlink:href="#linear-gradient"/><linearGradient id="linear-gradient-18" x1="632.06" y1="826.62" x2="1142.81" y2="1106.74" xlink:href="#linear-gradient"/><linearGradient id="linear-gradient-19" x1="608.15" y1="870.21" x2="1118.9" y2="1150.34" xlink:href="#linear-gradient"/><linearGradient id="linear-gradient-20" x1="616.29" y1="855.36" x2="1127.04" y2="1135.49" xlink:href="#linear-gradient"/><linearGradient id="linear-gradient-21" x1="638.28" y1="815.27" x2="1149.03" y2="1095.4" xlink:href="#linear-gradient"/><linearGradient id="linear-gradient-22" x1="633.16" y1="824.61" x2="1143.91" y2="1104.73" xlink:href="#linear-gradient"/><linearGradient id="linear-gradient-23" x1="598.06" y1="888.6" x2="1108.81" y2="1168.73" xlink:href="#linear-gradient"/><linearGradient id="linear-gradient-24" x1="626.41" y1="836.92" x2="1137.16" y2="1117.05" xlink:href="#linear-gradient"/><linearGradient id="linear-gradient-25" x1="597.04" y1="890.46" x2="1107.79" y2="1170.58" xlink:href="#linear-gradient"/><linearGradient id="linear-gradient-26" x1="634.55" y1="822.07" x2="1145.3" y2="1102.2" xlink:href="#linear-gradient"/><linearGradient id="linear-gradient-27" x1="599.49" y1="886" x2="1110.24" y2="1166.12" xlink:href="#linear-gradient"/><linearGradient id="linear-gradient-28" x1="681.33" y1="732.79" x2="1192.08" y2="1012.91" xlink:href="#linear-gradient"/><linearGradient id="linear-gradient-29" x1="673.23" y1="747.55" x2="1183.98" y2="1027.67" xlink:href="#linear-gradient"/><linearGradient id="linear-gradient-30" x1="694.91" y1="708.01" x2="1205.66" y2="988.14" xlink:href="#linear-gradient"/><linearGradient id="linear-gradient-31" x1="678.27" y1="738.37" x2="1189.02" y2="1018.49" xlink:href="#linear-gradient"/><linearGradient id="linear-gradient-32" x1="714.73" y1="671.88" x2="1225.48" y2="952.01" xlink:href="#linear-gradient"/><linearGradient id="linear-gradient-33" x1="683.86" y1="728.17" x2="1194.61" y2="1008.29" xlink:href="#linear-gradient"/><linearGradient id="linear-gradient-34" x1="651.16" y1="787.79" x2="1161.91" y2="1067.91" xlink:href="#linear-gradient"/><linearGradient id="linear-gradient-35" x1="645.82" y1="797.52" x2="1156.57" y2="1077.65" xlink:href="#linear-gradient"/><linearGradient id="linear-gradient-36" x1="662.58" y1="766.96" x2="1173.33" y2="1047.08" xlink:href="#linear-gradient"/><linearGradient id="linear-gradient-37" x1="650.72" y1="788.59" x2="1161.47" y2="1068.71" xlink:href="#linear-gradient"/><linearGradient id="linear-gradient-38" x1="654.88" y1="781.01" x2="1165.63" y2="1061.13" xlink:href="#linear-gradient"/><linearGradient id="linear-gradient-39" x1="664.64" y1="763.21" x2="1175.39" y2="1043.33" xlink:href="#linear-gradient"/><linearGradient id="linear-gradient-40" x1="672.56" y1="748.77" x2="1183.31" y2="1028.89" xlink:href="#linear-gradient"/><linearGradient id="linear-gradient-41" x1="663.63" y1="765.05" x2="1174.38" y2="1045.18" xlink:href="#linear-gradient"/><linearGradient id="linear-gradient-42" x1="674.08" y1="745.99" x2="1184.83" y2="1026.12" xlink:href="#linear-gradient"/><linearGradient id="linear-gradient-43" x1="672.01" y1="749.77" x2="1182.76" y2="1029.9" xlink:href="#linear-gradient"/><linearGradient id="linear-gradient-44" x1="720.51" y1="661.35" x2="1231.26" y2="941.47" xlink:href="#linear-gradient"/><linearGradient id="linear-gradient-45" x1="689.4" y1="718.07" x2="1200.15" y2="998.2" xlink:href="#linear-gradient"/><linearGradient id="linear-gradient-46" x1="730.19" y1="643.69" x2="1240.94" y2="923.82" xlink:href="#linear-gradient"/><linearGradient id="linear-gradient-47" x1="714.24" y1="672.77" x2="1224.99" y2="952.9" xlink:href="#linear-gradient"/><linearGradient id="linear-gradient-48" x1="682.51" y1="730.62" x2="1193.26" y2="1010.74" xlink:href="#linear-gradient"/><linearGradient id="linear-gradient-49" x1="694.86" y1="708.1" x2="1205.61" y2="988.23" xlink:href="#linear-gradient"/><linearGradient id="linear-gradient-50" x1="737.31" y1="630.71" x2="1248.06" y2="910.84" xlink:href="#linear-gradient"/><linearGradient id="linear-gradient-51" x1="704.57" y1="690.4" x2="1215.32" y2="970.52" xlink:href="#linear-gradient"/><linearGradient id="linear-gradient-52" x1="734.47" y1="635.89" x2="1245.22" y2="916.01" xlink:href="#linear-gradient"/><linearGradient id="linear-gradient-53" x1="700.51" y1="697.8" x2="1211.26" y2="977.93" xlink:href="#linear-gradient"/><linearGradient id="linear-gradient-54" x1="767.52" y1="575.63" x2="1278.27" y2="855.75" xlink:href="#linear-gradient"/></defs><title>Asset 2</title><path class="cls-1" d="M881.74,921.54a76.38,76.38,0,0,0-1.42-9c-.33-1.56-2.1-1.9-3.65-1.5s-2.89,1.48-2.6,2.88a67.69,67.69,0,0,1,1.3,8.19c.13,1.39,1.76,2,3.35,1.87S881.88,923.1,881.74,921.54Z" transform="translate(-714.73 -622.15)"/><path class="cls-2" d="M892.5,908.4c-.29-1.16-.59-2.32-.91-3.47s-.66-2.29-1.06-3.41c-1.22-3.5-7.15-1.09-6.07,2,.37,1,.65,2.09,1,3.13s.57,2.14.84,3.21C887,913.18,893.32,912.07,892.5,908.4Z" transform="translate(-714.73 -622.15)"/><path class="cls-3" d="M894.8,947.76V926.64c0-.47,0-1,0-1.54-.06-2.19-.25-4.5-.51-6.78-.23-1.85-1.95-2.52-3.54-2.27s-3,1.33-2.82,3c.25,2.1.42,4.24.48,6.19v22.42C888.4,951.81,894.8,951.89,894.8,947.76Z" transform="translate(-714.73 -622.15)"/><path class="cls-4" d="M919.37,912.9a106.13,106.13,0,0,0-8.16-28.72c-1-2.27-3-2.67-4.45-1.94a3.34,3.34,0,0,0-1.39,4.57,99.61,99.61,0,0,1,7.67,27,3.26,3.26,0,0,0,3.6,3A3.18,3.18,0,0,0,919.37,912.9Z" transform="translate(-714.73 -622.15)"/><path class="cls-5" d="M907.08,917.8a78.45,78.45,0,0,1,.51,9.25v62.13a3.23,3.23,0,0,0,3.2,3.22,3.17,3.17,0,0,0,3.2-3.18V928.66a3.69,3.69,0,0,1,1-2.47,3.07,3.07,0,0,1,2.19-1,2.82,2.82,0,0,1,2.21,1,4.14,4.14,0,0,1,1,2.57V979.7a3.22,3.22,0,0,0,3.19,3.21,3.16,3.16,0,0,0,3.2-3.16V943.69c0-4.12,6.4-4,6.4.08V1028c0,4.11-6.4,4.09-6.4,0v-27.19a3.21,3.21,0,0,0-3.2-3.2,3.16,3.16,0,0,0-3.19,3.17v12.52c0,4.11-6.41,4.08-6.41,0v-3.9a3.22,3.22,0,0,0-3.2-3.21,3.18,3.18,0,0,0-3.2,3.18V1049c0,4.12-6.39,4.11-6.39,0v-44.54a3.24,3.24,0,0,0-3.2-3.23,3.18,3.18,0,0,0-3.2,3.19v29.85c0,4.12-6.4,4.11-6.4,0V995.71a3.24,3.24,0,0,0-3.2-3.23,3.17,3.17,0,0,0-3.2,3.18v29.58c0,4.13-6.4,4.11-6.4,0V932c0-4.14,6.4-4,6.4.09v38.62a3.23,3.23,0,0,0,3.2,3.23h0a3.16,3.16,0,0,0,3.2-3.17v-9.14c0-4.13,6.4-4,6.4.07v24.5a3.23,3.23,0,0,0,3.2,3.23h0a3.17,3.17,0,0,0,3.2-3.18V926.61a75.12,75.12,0,0,0-.47-8.12C900.25,914.59,906.56,913.53,907.08,917.8Z" transform="translate(-714.73 -622.15)"/><path class="cls-6" d="M933.18,924.73c0-2.57-.2-4.86-.4-7.17l-.34-3.41-.44-3.37a123.11,123.11,0,0,0-2.67-13.32c-.66-2.62-2.61-3.47-4.14-3s-2.68,2.14-2.05,4.61a119.76,119.76,0,0,1,2.53,12.64,109,109,0,0,1,1.11,13.16,8.06,8.06,0,0,0,.09,1,7.85,7.85,0,0,0,.2,1,1.62,1.62,0,0,0,.31.62,2.46,2.46,0,0,0,.41.44,3.45,3.45,0,0,0,2.2.81,3.38,3.38,0,0,0,2.2-.74,2.78,2.78,0,0,0,.41-.43,1.67,1.67,0,0,0,.32-.63,7.68,7.68,0,0,0,.2-1.12A6.46,6.46,0,0,0,933.18,924.73Z" transform="translate(-714.73 -622.15)"/><path class="cls-7" d="M811.75,873.74c-1.49.26-2.92.64-4.38.93s-2.79.81-4.2,1.18c-2.85,1-.46,7,2,6.09,1.26-.33,2.47-.75,3.77-1.06s2.61-.6,4-.84C815.71,879.62,815,873.26,811.75,873.74Z" transform="translate(-714.73 -622.15)"/><path class="cls-8" d="M873,893.88a40.43,40.43,0,0,0-17.39-15.79,53.77,53.77,0,0,0-12.1-4.06c-1.07-.26-2.25-.37-3.37-.58l-1.7-.29c-.57-.09-1.18-.11-1.77-.18l-3.55-.34-3.67-.11-2.07-.08c-.69,0-1.39,0-2.09.06-1.39,0-2.8,0-4.18.13-3.3.3-2.59,6.66.39,6.38,1.14-.06,2.32-.06,3.48-.1s2.32-.1,3.46,0l3.42.1a14.74,14.74,0,0,1,1.67.12l1.63.16c2.23.12,4.23.57,6.3.87,1,.2,1.93.47,2.91.68.47.13,1,.2,1.43.35l1.34.45a35,35,0,0,1,17,10.88c.63.7,1.17,1.52,1.79,2.25s1.14,1.6,1.65,2.5C868.78,899.3,874.49,896.38,873,893.88Z" transform="translate(-714.73 -622.15)"/><path class="cls-9" d="M797.92,864.12l-3.3,1.21c-1.08.44-2.12.95-3.19,1.41-1.67.7-1.68,2.63-.94,4s2.15,2.4,3.64,1.78c1-.41,1.9-.88,2.87-1.27l3-1.1a2.45,2.45,0,0,0,1.47-1.53,3.86,3.86,0,0,0,0-2.28,3.73,3.73,0,0,0-1.28-1.92A2.27,2.27,0,0,0,797.92,864.12Z" transform="translate(-714.73 -622.15)"/><path class="cls-10" d="M835.39,860l-1.73-.16-1.76-.05-3.52-.11c-1.17-.07-2.35,0-3.53,0l-3.53.09c-1.18,0-2.33.19-3.5.28s-2.33.18-3.48.32l-3.43.52-1.72.25c-.57.1-1.12.24-1.68.36-3.65.8-2,7,1.28,6.27.52-.11,1-.24,1.55-.33l1.59-.23,3.18-.49c1.08-.13,2.18-.19,3.26-.3s2.17-.24,3.28-.26l3.33-.09c1.11,0,2.23-.09,3.33,0l3.3.1,1.66,0,1.61.16C838.29,866.71,839.16,860.37,835.39,860Z" transform="translate(-714.73 -622.15)"/><path class="cls-11" d="M887.57,894a64.17,64.17,0,0,0-5.94-10.3,60.55,60.55,0,0,0-7.74-8.7,56.7,56.7,0,0,0-4.54-3.62c-.8-.54-1.54-1.17-2.39-1.65l-2.49-1.5-.63-.38-.66-.33-1.31-.65c-.89-.41-1.72-.93-2.65-1.27-1.85-.71-3.62-1.56-5.56-2.1-1.12-.33-2.2-.73-3.33-1l-3.44-.82c-1.76-.47-3,1-3.27,2.6s.31,3.22,1.89,3.65a52.1,52.1,0,0,1,5.3,1.41l2.58.82,2.45,1,1.23.49c.41.17.78.39,1.17.58l2.34,1.16c.75.42,1.46.89,2.21,1.32l1.1.65c.36.24.69.5,1,.75a47.67,47.67,0,0,1,13.9,15l.8,1.33c.26.45.48.93.73,1.39.49.92,1,1.85,1.4,2.83a2.23,2.23,0,0,0,1.69,1.28,3.81,3.81,0,0,0,2.26-.25,3.71,3.71,0,0,0,1.78-1.47A2.38,2.38,0,0,0,887.57,894Z" transform="translate(-714.73 -622.15)"/><path class="cls-12" d="M904.33,903a87,87,0,0,0-7.81-19.67,70.67,70.67,0,0,0-13.06-16.86,68.36,68.36,0,0,0-13.9-10,78.92,78.92,0,0,0-15.86-6.29,109.51,109.51,0,0,0-33.48-3.11c-2.55.2-5.11.4-7.65.69l-3.82.57-1.9.29c-.64.11-1.26.27-1.89.4-4.22.92-2.56,7.11,1.27,6.27,1.6-.4,3.24-.58,4.87-.84l2.44-.37c.82-.11,1.64-.16,2.47-.24,1.64-.12,3.28-.33,4.94-.4l5-.14,1.24,0,1.24,0,2.48.07c1.66.06,3.32.06,5,.26l4.93.47,4.86.8a72.92,72.92,0,0,1,15,4.43,59.93,59.93,0,0,1,13.5,7.66,63.46,63.46,0,0,1,19.15,24.18,82.07,82.07,0,0,1,4.86,13.51,3.08,3.08,0,0,0,3.84,2.18A3,3,0,0,0,904.33,903Z" transform="translate(-714.73 -622.15)"/><path class="cls-13" d="M800,837a92,92,0,0,0-28.32,11.35c-4.34,2.74-.56,7.92,3.34,5.45a85.81,85.81,0,0,1,26.4-10.56A3.22,3.22,0,1,0,800,837Z" transform="translate(-714.73 -622.15)"/><path class="cls-14" d="M896.64,861.68A80.23,80.23,0,0,0,881,848.37a85.37,85.37,0,0,0-18.23-8.78l-4.73-1.5c-1.58-.45-3.17-.79-4.75-1.18l-2.39-.57c-.79-.17-1.58-.28-2.37-.42l-4.76-.78c-1.58-.23-3.15-.33-4.72-.49s-3.16-.36-4.71-.38l-4.67-.15-2.33-.06c-.77,0-1.55,0-2.32.05l-5.33.15c-1.78.1-3.58.29-5.37.44a3.47,3.47,0,0,0-2.53,1.23,3.22,3.22,0,0,0,.52,4.37,3.45,3.45,0,0,0,2.63.77l4.44-.39,4.43-.14c1.47,0,2.94-.14,4.42-.06l4.44.14,2.22.07,2.23.2,4.47.43c1.48.14,3,.45,4.47.68s3,.43,4.46.83l4.45,1.06c.75.16,1.48.4,2.22.63l2.2.71,2.2.7c.73.23,1.44.56,2.16.84,1.44.59,2.89,1.15,4.31,1.79a75.1,75.1,0,0,1,16,9.94,53.43,53.43,0,0,1,4.08,3.59c1.3,1.26,2.61,2.51,3.78,3.88a3.42,3.42,0,0,0,4.81.65C898,865.6,898.38,863.61,896.64,861.68Z" transform="translate(-714.73 -622.15)"/><path class="cls-15" d="M810.23,822.22a121.89,121.89,0,0,0-26.86,6.34c-2.65,1-3.35,3-2.73,4.46s2.46,2.46,4.94,1.55a114.55,114.55,0,0,1,25.4-6C815.87,828.13,815.46,821.74,810.23,822.22Z" transform="translate(-714.73 -622.15)"/><path class="cls-16" d="M918.4,870.08a95.88,95.88,0,0,0-13.88-18.76A91.81,91.81,0,0,0,886,836.4a101.63,101.63,0,0,0-10.39-5.53,106.36,106.36,0,0,0-10.7-4A107.49,107.49,0,0,0,854.12,824c-.9-.23-1.78-.37-2.66-.52l-2.65-.45-2.66-.42-1.33-.21-1.3-.14-6-.57c-.5,0-1-.1-1.49-.13l-1.47,0-2.93-.09c-5.19-.15-5.08,6.25-.2,6.39,1.63.07,3.24.08,4.89.2l5,.46,2.49.25c.83.1,1.67.26,2.51.39l5,.83c1.68.32,3.38.77,5.06,1.16l2.53.61c.84.21,1.68.51,2.53.77q2.52.79,5,1.63l5,2a90,90,0,0,1,19,11.09A86.48,86.48,0,0,1,906,862.88a92.09,92.09,0,0,1,6.88,10.36c1.32,2.33,3.3,2.81,4.75,2.08S919.82,872.6,918.4,870.08Z" transform="translate(-714.73 -622.15)"/><path class="cls-17" d="M767.71,939.2a78.62,78.62,0,0,0,3.82,8.54c.74,1.48,2.56,1.42,4,.64s2.41-2.2,1.74-3.56a70.2,70.2,0,0,1-3.53-7.89c-.55-1.36-2.23-1.48-3.76-1S767.12,937.69,767.71,939.2Z" transform="translate(-714.73 -622.15)"/><path class="cls-18" d="M790.09,882.11a50.53,50.53,0,0,0-16.57,18.94,72.84,72.84,0,0,0-5.16,12.83,80.78,80.78,0,0,0-2.78,13.89c-.06.63-.14,1.28-.17,1.86l0,.45c0,.12,0,.36,0,.37s0,.2,0,.3a4.25,4.25,0,0,0,.1,1.13c.07.26.42.21,1.13.49a4.69,4.69,0,0,0,2.25-.09,5.57,5.57,0,0,0,2-.95,1.29,1.29,0,0,1,.91-.52h0v-.15c0-.48,0-.91.12-1.43.19-2,.48-4.17.9-6.32a71.89,71.89,0,0,1,3.55-12.52c3.08-7.9,7.35-14.45,12.62-19.23l2.28-2,2.44-1.76C795.66,886.17,792.53,880.58,790.09,882.11Z" transform="translate(-714.73 -622.15)"/><path class="cls-19" d="M760.81,954.89c1.17,2.13,2.37,4.26,3.67,6.31,1,1.62,2.89,1.46,4.19.57s2.12-2.47,1.23-4c-1.22-1.92-2.34-3.9-3.44-5.91C764.88,948.79,759.08,951.49,760.81,954.89Z" transform="translate(-714.73 -622.15)"/><path class="cls-20" d="M753.61,920.93c-.37,2.28-.7,4.58-.89,6.84l-.13,1.67-.07,1.34a12.11,12.11,0,0,0,.17,2.55c0,.42.16.83.24,1.25l.12.64.21.78c.24,1,.57,2.1.9,3.17s.72,2.16,1.08,3.24l1.25,3.24c1.47,3.49,7.27.77,5.93-2.41l-1.16-3c-.33-1-.71-2-1-3s-.59-1.94-.8-2.83l-.18-.68-.08-.44a7.6,7.6,0,0,1-.16-.83,8.06,8.06,0,0,1-.11-1.7l.05-.95.11-1.51c.17-2.06.48-4.2.83-6.32.3-1.7-1.1-2.87-2.65-3.2S753.94,919.08,753.61,920.93Z" transform="translate(-714.73 -622.15)"/><path class="cls-21" d="M789.63,867.59c-1.73.95-3.52,1.82-5.15,2.93s-3.26,2.22-4.86,3.37A65.36,65.36,0,0,0,771,882a71.54,71.54,0,0,0-7,9.74,75.11,75.11,0,0,0-5.35,11c-.9,2.21-1.67,4.49-2.38,6.78-1.05,3.63,5.17,5.15,6.12,1.87A71.76,71.76,0,0,1,772,891.19a54,54,0,0,1,6.9-8.18,51.28,51.28,0,0,1,8.23-6.61c.88-.53,1.71-1.12,2.61-1.63l2.74-1.47c1.42-.71,1.54-2.45.88-3.93S791.25,866.78,789.63,867.59Z" transform="translate(-714.73 -622.15)"/><path class="cls-22" d="M798.16,850.66a78.54,78.54,0,0,0-19.49,8.39,73.19,73.19,0,0,0-16.38,13.59,85.72,85.72,0,0,0-16.93,29.22,102.51,102.51,0,0,0-4.25,16.32c-.49,2.77-.89,5.56-1.13,8.38-.07.71-.11,1.42-.17,2.13s-.07,1.5-.09,2.25a22,22,0,0,0,.33,4.52,62.78,62.78,0,0,0,2,7.73c.39,1.24.82,2.45,1.24,3.67s.91,2.41,1.39,3.6c1.67,3.95,7.47,1.23,5.93-2.41a91.22,91.22,0,0,1-3.2-9.3c-.2-.77-.42-1.57-.59-2.33s-.34-1.47-.43-2.22a17.18,17.18,0,0,1-.17-4.53,93.92,93.92,0,0,1,3.27-19.4A84.64,84.64,0,0,1,762.91,882a67.62,67.62,0,0,1,23.66-20,74.08,74.08,0,0,1,13.34-5.16,2.87,2.87,0,0,0,1.89-1.59,3.42,3.42,0,0,0,.21-2.3,3.28,3.28,0,0,0-1.3-2A3,3,0,0,0,798.16,850.66Z" transform="translate(-714.73 -622.15)"/><path class="cls-23" d="M733.7,957.48a123.5,123.5,0,0,0,6.51,13,118.94,118.94,0,0,0,8,12.22,3.16,3.16,0,0,0,4.67.86,3.27,3.27,0,0,0,.46-4.68,114.22,114.22,0,0,1-7.6-11.58A116.92,116.92,0,0,1,739.58,955a3.25,3.25,0,0,0-4.27-1.94A3.16,3.16,0,0,0,733.7,957.48Z" transform="translate(-714.73 -622.15)"/><path class="cls-24" d="M757.06,859.65a94.62,94.62,0,0,0-21.73,32.58,116.45,116.45,0,0,0-5.71,18.16c-.67,3.08-1.29,6.17-1.72,9.32-.22,1.58-.43,3.16-.58,4.78-.08.8-.16,1.61-.21,2.45l-.09,1.25-.07,1.58a37.08,37.08,0,0,0,.4,7.29c.18,1.21.45,2.4.69,3.6.07.32.13.54.19.78l.18.73.38,1.44c.69,2.46,2.59,3.13,4.11,2.65a3.3,3.3,0,0,0,2.06-4.32l-.59-2.31c-.19-.86-.37-1.77-.55-2.66s-.27-1.8-.39-2.7-.15-1.82-.12-2.73.05-1.82.09-2.72l.16-2.36c.14-1.52.29-3,.49-4.51a112.42,112.42,0,0,1,3.75-17.54,96,96,0,0,1,16.52-32.26l1.67-2.07c.57-.68,1.19-1.32,1.78-2l1.81-2,1.92-1.87a3.71,3.71,0,0,0,1.23-2.56,3.1,3.1,0,0,0-.78-2.23,3,3,0,0,0-2.17-1A3.83,3.83,0,0,0,757.06,859.65Z" transform="translate(-714.73 -622.15)"/><path class="cls-25" d="M717.33,950a120.33,120.33,0,0,0,4.74,12.81c.86,2,1.82,4,2.76,6s2,3.93,3,5.84c2.57,4.56,8,1.2,5.61-3.09-1-1.82-2-3.71-2.92-5.57s-1.81-3.78-2.63-5.73a115.61,115.61,0,0,1-4.49-12.14c-.78-2.49-2.66-3.54-4.22-3.14S716.49,947.34,717.33,950Z" transform="translate(-714.73 -622.15)"/><path class="cls-26" d="M764.56,837.69a95.9,95.9,0,0,0-18,14.37,103.77,103.77,0,0,0-14,17.77,115.75,115.75,0,0,0-9.75,19.47,126.61,126.61,0,0,0-6,20.19c-.83,3.92-1.49,7.86-2,12-.3,2.71,1.2,4.25,2.8,4.37s3.28-1.1,3.56-3.65a125.64,125.64,0,0,1,3.88-19.6,117.76,117.76,0,0,1,7.11-18.91A104.19,104.19,0,0,1,743,865.83a93.65,93.65,0,0,1,14.87-15.46c1.56-1.37,3.26-2.57,4.93-3.8s3.41-2.34,5.15-3.44c2.28-1.47,2.71-3.46,1.93-4.86S767,836.11,764.56,837.69Z" transform="translate(-714.73 -622.15)"/><path class="cls-27" d="M866.72,1002.12a34,34,0,0,0-13.14-17.43,28.52,28.52,0,0,0-8.69-4.4,19.33,19.33,0,0,0-4.39-1c-.73-.09-1.48-.09-2.2-.11a14.42,14.42,0,0,0-2.18,0A59.1,59.1,0,0,1,809.71,976c-7.88-2.86-14.92-7.89-21.16-14.69-1-1-2.66-.57-3.88.46s-1.94,2.71-.85,3.85a68.56,68.56,0,0,0,7.54,7.16l2,1.54c.33.25.66.52,1,.77l1.05.69,2.09,1.39,2.17,1.23c1.42.89,2.95,1.51,4.44,2.25a20,20,0,0,0,2.29,1l2.31.91c.79.26,1.59.47,2.39.72s1.57.53,2.4.7l2.47.54a18.57,18.57,0,0,0,2.49.48c1.28.18,2.15,1.75,1.93,3.5a2.89,2.89,0,0,1-3,2.81,31,31,0,0,1-3.19-.63c-1-.26-2.12-.43-3.16-.73-2-.67-4.15-1.14-6.11-2a61.43,61.43,0,0,1-11.47-5.73,74,74,0,0,1-19.21-18c-2.06-2.75-7.38.83-5.11,3.86,8.87,11.87,20.65,21.12,34.12,26.09a3.19,3.19,0,0,1,1.67,4h0a3,3,0,0,1-3.89,2l-3.57-1.38c-1.16-.51-2.3-1.08-3.45-1.62l-1.73-.82-1.66-.95c-1.11-.63-2.23-1.23-3.32-1.9a90.37,90.37,0,0,1-12.19-9.26,100.67,100.67,0,0,1-10.38-11.35,102.48,102.48,0,0,1-8.5-12.89,3.08,3.08,0,0,0-4.27-1.15,3,3,0,0,0-1.31,4.28,109.52,109.52,0,0,0,12.64,18.09,93,93,0,0,0,16.4,14.91,81.06,81.06,0,0,0,19.73,10.27,89,89,0,0,0,21.7,4.73,3.32,3.32,0,0,1,3.13,3.41h0a3.32,3.32,0,0,1-3.7,3,92.69,92.69,0,0,1-27-6.52c-.54-.22-1.09-.4-1.62-.65l-1.59-.75-3.16-1.51c-2.09-1-4.08-2.26-6.12-3.39s-3.91-2.53-5.8-3.87l-2.77-2.1c-.93-.7-1.85-1.41-2.71-2.18-3.41-3-7.85,1.67-4.11,4.91a101,101,0,0,0,18.62,12.35,95.79,95.79,0,0,0,21.09,7.71c2,.46,3.44,2.22,3.1,4s-2.38,2.75-4.58,2.26a100.84,100.84,0,0,1-30.69-12.87,111.91,111.91,0,0,1-24.67-21.37c-3.2-3.85-8.29.05-4.85,4.19a118.06,118.06,0,0,0,19.8,18.31,109.27,109.27,0,0,0,24.27,13.35,106.66,106.66,0,0,0,26.69,6.8,121.87,121.87,0,0,0,26.47.45c1.26-.1,2.49-.25,3.7-.45a31.33,31.33,0,0,0,3.46-.93,37.44,37.44,0,0,0,6.3-2.65,29.9,29.9,0,0,0,9.18-8.34,25.17,25.17,0,0,0,3.1-22Z" transform="translate(-714.73 -622.15)"/><path class="cls-28" d="M751.63,1097.23l7.57-25.73a1.83,1.83,0,0,1,1.9-1.39,1.63,1.63,0,0,1,1.76,1.18l7.5,26.12a1.87,1.87,0,0,1,.09.56,1.82,1.82,0,0,1-.54,1.33,1.67,1.67,0,0,1-1.23.55,1.78,1.78,0,0,1-1.88-1.37l-1.48-5.1h-8.61l-1.64,5.47a1.15,1.15,0,0,1-.56.68,2,2,0,0,1-1.08.32,1.81,1.81,0,0,1-1.37-.56,1.89,1.89,0,0,1-.54-1.37A2.16,2.16,0,0,1,751.63,1097.23Zm9.44-18.42-3.22,10.77h6.36Z" transform="translate(-714.73 -622.15)"/><path class="cls-28" d="M794.37,1099.85H783a1.79,1.79,0,0,1-1.33-.57,1.91,1.91,0,0,1-.55-1.36,1.87,1.87,0,0,1,.55-1.32A1.81,1.81,0,0,1,783,1096h3.76v-22.17H783a1.83,1.83,0,0,1-1.33-.55,1.88,1.88,0,0,1,1.33-3.21h5.73a1.77,1.77,0,0,1,1.32.56,1.81,1.81,0,0,1,.56,1.32v24h3.8a1.91,1.91,0,0,1,1.88,1.88,1.87,1.87,0,0,1-.55,1.36A1.75,1.75,0,0,1,794.37,1099.85Z" transform="translate(-714.73 -622.15)"/><path class="cls-28" d="M812.49,1086.29h7.37a8.84,8.84,0,0,1,1.75.26l0-2.66a1.88,1.88,0,0,0-1.89-1.88h-7.15a1.91,1.91,0,0,1-1.89-1.88,1.88,1.88,0,0,1,1.89-1.88h7.15a5.46,5.46,0,0,1,4,1.64,5.71,5.71,0,0,1,1.71,4l.47,14.08a1.9,1.9,0,0,1-1.88,1.88,1.88,1.88,0,0,1-1.37-.55A1.8,1.8,0,0,1,822,1098l-3.18,1.88h-6.36a5.67,5.67,0,0,1-5.7-5.69V1092a5.68,5.68,0,0,1,5.7-5.68Zm9.4,7.31-.11-1.58a2,2,0,0,0-.56-1.35,1.79,1.79,0,0,0-1.32-.53h-7.42a1.86,1.86,0,0,0-1.88,1.88v2.1a1.77,1.77,0,0,0,.56,1.32,1.81,1.81,0,0,0,1.32.56h5.31Z" transform="translate(-714.73 -622.15)"/><path class="cls-28" d="M834.57,1098v-17.84a1.87,1.87,0,0,1,.55-1.35,1.85,1.85,0,0,1,2.66,0,1.86,1.86,0,0,1,.55,1.36v2.35l3.06-2.62a5.85,5.85,0,0,1,3.72-1.61h2.75a5.65,5.65,0,0,1,5.64,5.64v1a1.84,1.84,0,0,1-.55,1.36,1.76,1.76,0,0,1-1.33.56,1.83,1.83,0,0,1-1.33-.54,1.81,1.81,0,0,1-.55-1.34v-1a1.88,1.88,0,0,0-1.88-1.88h-2.44a2.82,2.82,0,0,0-1.74.83l-5.35,4.63V1098a1.88,1.88,0,1,1-3.76,0Z" transform="translate(-714.73 -622.15)"/><path class="cls-28" d="M877.43,1099.8H866a1.87,1.87,0,0,1-1.33-3.2A1.8,1.8,0,0,1,866,1096h3.85v-14H866a1.78,1.78,0,0,1-1.33-.56,1.84,1.84,0,0,1-.55-1.32,1.91,1.91,0,0,1,.55-1.35,1.79,1.79,0,0,1,1.33-.57h5.73a1.77,1.77,0,0,1,1.33.57,1.87,1.87,0,0,1,.55,1.35V1096h3.76a1.93,1.93,0,0,1,1.36.55,1.79,1.79,0,0,1,.57,1.33,1.82,1.82,0,0,1-.56,1.34A1.86,1.86,0,0,1,877.43,1099.8Zm-7.66-31.35h2a1.88,1.88,0,0,1,1.88,1.88v1.61a1.9,1.9,0,0,1-.55,1.36,1.77,1.77,0,0,1-1.33.57h-2a1.8,1.8,0,0,1-1.36-.59,1.74,1.74,0,0,1-.52-1.29l0-1.66a1.88,1.88,0,0,1,1.88-1.88Z" transform="translate(-714.73 -622.15)"/><path class="cls-28" d="M907,1099.85h-8a5.42,5.42,0,0,1-3.63-1.28l-3.64-3.17a4.85,4.85,0,0,1-1.75-3.94v-4.9a5.09,5.09,0,0,1,2-4.17l3.29-2.84a5.31,5.31,0,0,1,3.4-1.3h8.44a1.83,1.83,0,0,1,1.33.55,1.91,1.91,0,0,1,0,2.68,1.85,1.85,0,0,1-1.33.53H899a2.15,2.15,0,0,0-1.45.61l-3,2.57a2.1,2.1,0,0,0-.73,1.68v4.59a1.6,1.6,0,0,0,.58,1.25l3.31,2.82a2.42,2.42,0,0,0,1.66.56H907a1.84,1.84,0,0,1,1.33.55,1.79,1.79,0,0,1,.55,1.33,1.86,1.86,0,0,1-1.88,1.88Z" transform="translate(-714.73 -622.15)"/><path class="cls-28" d="M964.24,1090.63v1.65a7.31,7.31,0,0,1-2.21,5.34,7.17,7.17,0,0,1-5.31,2.23h-11.5v-29.74h11.5a7.19,7.19,0,0,1,5.31,2.21,7.32,7.32,0,0,1,2.21,5.35v1.59a7.4,7.4,0,0,1-2.58,5.68A7.52,7.52,0,0,1,964.24,1090.63Zm-3.85-11.42v-1.54a3.7,3.7,0,0,0-1.11-2.69,3.61,3.61,0,0,0-2.65-1.11H949v9.1h7.65a3.67,3.67,0,0,0,2.64-1.1A3.61,3.61,0,0,0,960.39,1079.21Zm0,13.07v-1.56a3.68,3.68,0,0,0-1.11-2.69,3.62,3.62,0,0,0-2.65-1.12H949V1096h7.61a3.79,3.79,0,0,0,3.76-3.76Z" transform="translate(-714.73 -622.15)"/><path class="cls-28" d="M991.92,1085.32v4.55a1.91,1.91,0,0,1-1.88,1.88H976.75v1.09a2,2,0,0,0,.83,1.64l1.09.92a2.86,2.86,0,0,0,1.71.69H990a1.8,1.8,0,0,1,1.32.55,1.76,1.76,0,0,1,.56,1.33,1.78,1.78,0,0,1-.57,1.32,1.82,1.82,0,0,1-1.31.56h-9.91a5.9,5.9,0,0,1-2.07-.41,5.36,5.36,0,0,1-1.6-.87l-1.68-1.47a4.82,4.82,0,0,1-1.31-1.75,4.89,4.89,0,0,1-.52-2.06v-8.61a5.22,5.22,0,0,1,.57-2,5.16,5.16,0,0,1,1.44-1.94l1.57-1.23a5.28,5.28,0,0,1,3.42-1.26h5.28a5.42,5.42,0,0,1,3.76,1.66l1.41,1.34A5.17,5.17,0,0,1,991.92,1085.32Zm-15.13-.29v2.91h11.42v-2.62a2,2,0,0,0-.65-1.61l-1.1-1a2.52,2.52,0,0,0-1.52-.69h-4.72a2.43,2.43,0,0,0-1.59.6l-1.1.92A1.75,1.75,0,0,0,976.79,1085Z" transform="translate(-714.73 -622.15)"/><path class="cls-28" d="M1005.93,1078.25h8.62a5.65,5.65,0,0,1,3.56,1.2,3.2,3.2,0,0,1,1.54,2.34,1.69,1.69,0,0,1-.57,1.32,1.85,1.85,0,0,1-1.26.51,2.22,2.22,0,0,1-1.64-.8,2.09,2.09,0,0,0-1.54-.81h-8.51c-.83,0-1.25.35-1.25,1a1.2,1.2,0,0,0,.84,1.1l10,4.45a5.71,5.71,0,0,1,2.5,2.16,5.93,5.93,0,0,1,1,3.3,5.52,5.52,0,0,1-1.71,4.1,5.41,5.41,0,0,1-3.88,1.68H1006a6.25,6.25,0,0,1-3.66-1.19c-1.13-.79-1.69-1.56-1.69-2.3a1.82,1.82,0,0,1,.55-1.31,1.88,1.88,0,0,1,1.42-.57,2.3,2.3,0,0,1,1.53.8,3.22,3.22,0,0,0,2.36.81h7a1.74,1.74,0,0,0,1.38-.64,2.11,2.11,0,0,0,.56-1.46,1.89,1.89,0,0,0-1.25-1.84l-10.09-4.54a5,5,0,0,1-2.24-1.88,4.64,4.64,0,0,1-.78-2.51,4.87,4.87,0,0,1,1.4-3.49A4.54,4.54,0,0,1,1005.93,1078.25Z" transform="translate(-714.73 -622.15)"/><path class="cls-28" d="M1028.31,1098v-26a1.78,1.78,0,0,1,.55-1.3,1.83,1.83,0,0,1,1.33-.54,1.86,1.86,0,0,1,1.88,1.88v9.49l3-2a7.19,7.19,0,0,1,3.67-1.3h2.33a5.4,5.4,0,0,1,4,1.65,5.65,5.65,0,0,1,1.73,4l.47,14.08a1.74,1.74,0,0,1-.54,1.33,1.83,1.83,0,0,1-1.34.55,1.73,1.73,0,0,1-1.32-.57,1.92,1.92,0,0,1-.56-1.31l-.47-14.12a1.91,1.91,0,0,0-.58-1.32,1.84,1.84,0,0,0-1.35-.56H1039a2.86,2.86,0,0,0-1.57.56l-5.35,3.49v12a1.88,1.88,0,1,1-3.76,0Z" transform="translate(-714.73 -622.15)"/><path class="cls-28" d="M1061.65,1086.29H1069a8.84,8.84,0,0,1,1.75.26l0-2.66a1.88,1.88,0,0,0-1.88-1.88h-7.15a1.91,1.91,0,0,1-1.89-1.88,1.88,1.88,0,0,1,1.89-1.88h7.15a5.42,5.42,0,0,1,4,1.64,5.67,5.67,0,0,1,1.72,4L1075,1098a1.9,1.9,0,0,1-1.88,1.88,1.88,1.88,0,0,1-1.37-.55,1.8,1.8,0,0,1-.56-1.33l-3.18,1.88h-6.36a5.67,5.67,0,0,1-5.7-5.69V1092a5.68,5.68,0,0,1,5.7-5.68Zm9.4,7.31-.11-1.58a2,2,0,0,0-.56-1.35,1.79,1.79,0,0,0-1.33-.53h-7.41a1.86,1.86,0,0,0-1.88,1.88v2.1a1.77,1.77,0,0,0,.56,1.32,1.81,1.81,0,0,0,1.32.56H1067Z" transform="translate(-714.73 -622.15)"/><path class="cls-28" d="M1083.73,1098v-17.84a1.9,1.9,0,0,1,.54-1.35,1.86,1.86,0,0,1,2.67,0,1.9,1.9,0,0,1,.55,1.36v2.35l3.06-2.62a5.85,5.85,0,0,1,3.72-1.61H1097a5.67,5.67,0,0,1,5.64,5.64v1a1.84,1.84,0,0,1-.55,1.36,1.76,1.76,0,0,1-1.33.56,1.86,1.86,0,0,1-1.88-1.88v-1A1.88,1.88,0,0,0,1097,1082h-2.44a2.87,2.87,0,0,0-1.75.83l-5.34,4.63V1098a1.8,1.8,0,0,1-.56,1.33,1.83,1.83,0,0,1-1.32.55,1.86,1.86,0,0,1-1.88-1.88Z" transform="translate(-714.73 -622.15)"/><path class="cls-28" d="M1117,1086.29h7.38a8.94,8.94,0,0,1,1.75.26l-.05-2.66a1.88,1.88,0,0,0-1.88-1.88h-7.16a1.88,1.88,0,0,1-1.33-3.21,1.84,1.84,0,0,1,1.33-.55h7.15a5.44,5.44,0,0,1,4,1.64,5.67,5.67,0,0,1,1.72,4l.47,14.08a1.8,1.8,0,0,1-.56,1.33,1.83,1.83,0,0,1-1.32.55,1.86,1.86,0,0,1-1.37-.55,1.8,1.8,0,0,1-.56-1.33l-3.18,1.88H1117a5.67,5.67,0,0,1-5.69-5.69V1092a5.68,5.68,0,0,1,5.69-5.68Zm9.41,7.31-.12-1.58a1.89,1.89,0,0,0-.56-1.35,1.76,1.76,0,0,0-1.32-.53H1117a1.84,1.84,0,0,0-1.88,1.88v2.1a1.77,1.77,0,0,0,.56,1.32,1.81,1.81,0,0,0,1.32.56h5.31Z" transform="translate(-714.73 -622.15)"/><path class="cls-28" d="M1139.05,1098v-26a1.74,1.74,0,0,1,.55-1.3,1.82,1.82,0,0,1,1.33-.54,1.88,1.88,0,0,1,1.88,1.88v9.49l3-2a7.16,7.16,0,0,1,3.67-1.3h2.33a5.4,5.4,0,0,1,4,1.65,5.6,5.6,0,0,1,1.72,4L1158,1098a1.7,1.7,0,0,1-.53,1.33,1.85,1.85,0,0,1-1.35.55,1.75,1.75,0,0,1-1.32-.57,2,2,0,0,1-.56-1.31l-.47-14.12a1.83,1.83,0,0,0-.58-1.32,1.8,1.8,0,0,0-1.34-.56h-2.1a2.86,2.86,0,0,0-1.57.56l-5.35,3.49v12a1.88,1.88,0,1,1-3.76,0Z" transform="translate(-714.73 -622.15)"/><path class="cls-29" d="M1169.84,987.93a86.33,86.33,0,0,1-11.34,18.28,8.45,8.45,0,0,0-1.94,4.15,3.51,3.51,0,0,0,1,3,3.29,3.29,0,0,0,3.06.7,7.38,7.38,0,0,0,4.05-2.82,93.88,93.88,0,0,0,12.38-20c1.57-3.55.44-6.07-1.4-6.78S1171.27,984.68,1169.84,987.93Z" transform="translate(-714.73 -622.15)"/><path class="cls-30" d="M1144.64,998.08a56.53,56.53,0,0,1-4.24,4.38l-2.25,2.07c-.78.66-1.6,1.26-2.41,1.9-2.43,2-2.75,4.35-1.67,6.05s3.7,2.46,6.51.22c.91-.71,1.84-1.4,2.71-2.15l2.54-2.32a67.11,67.11,0,0,0,4.77-4.93,5.35,5.35,0,0,0,1.53-3.8,3.52,3.52,0,0,0-1.38-2.66,3.86,3.86,0,0,0-2.91-.7A5.48,5.48,0,0,0,1144.64,998.08Z" transform="translate(-714.73 -622.15)"/><path class="cls-31" d="M1164.09,942.54a112.88,112.88,0,0,1-2.7,21,87,87,0,0,1-7.4,20.66,5.38,5.38,0,0,0-.57,3.62,3.84,3.84,0,0,0,1.75,2.4,3.55,3.55,0,0,0,3,.32,5.11,5.11,0,0,0,2.89-2.7,95.4,95.4,0,0,0,8.09-22.54c.88-3.78,1.48-7.53,2-11.28s.76-7.49.9-11.24c.11-3-1.91-4.55-3.87-4.54A4.08,4.08,0,0,0,1164.09,942.54Z" transform="translate(-714.73 -622.15)"/><path class="cls-32" d="M1125,971.25a35.22,35.22,0,0,1-6.09,7.94,28.84,28.84,0,0,1-7.86,5.47,2.38,2.38,0,0,0-1.18,1.89,5.83,5.83,0,0,0,.43,2.76,5,5,0,0,0,1.7,2.25,2.4,2.4,0,0,0,2.54.22,39.74,39.74,0,0,0,17.34-16.61,2.55,2.55,0,0,0,.37-1.32,2.87,2.87,0,0,0-.37-1.28,4.73,4.73,0,0,0-2.1-1.89,5.44,5.44,0,0,0-2.75-.59,2.86,2.86,0,0,0-1.16.34A2.14,2.14,0,0,0,1125,971.25Z" transform="translate(-714.73 -622.15)"/><path class="cls-33" d="M1140.41,976c.86-1.62,1.51-3.34,2.24-5s1.28-3.46,1.8-5.25a82.51,82.51,0,0,0,2.53-10.87,101.88,101.88,0,0,0,1.21-11.18,94.87,94.87,0,0,0,0-11.19l-.09-1.29v-1.29a109.41,109.41,0,0,0-1.94-18.59,99,99,0,0,0-5.08-17.93,3.73,3.73,0,0,0-5.09-1.86,3.87,3.87,0,0,0-2.29,4.77,91.15,91.15,0,0,1,4.67,16.49c.56,2.85,1,5.75,1.27,8.64s.5,5.85.53,8.54l0,1.55.1,1.54c.07,1.1.12,2.37.14,3.6s0,2.49,0,3.75c0,2.51-.23,5-.47,7.52a84,84,0,0,1-2.75,14.53c-.65,2.1-2.84,2.5-4.73,1.83s-3.45-2.22-2.88-4A76.68,76.68,0,0,0,1132,947.1c.21-2.29.39-4.6.43-6.9,0-1.15,0-2.3,0-3.42s-.08-2.29-.13-3.17l-.09-1.81,0-1.81c0-1.58-.12-3.48-.26-5.31s-.35-3.71-.61-5.57a92.65,92.65,0,0,0-2.15-10.93c-.43-1.75-2.58-2.58-4.65-1.95s-3.39,2.37-3,3.94a86,86,0,0,1,2,10c.23,1.71.42,3.43.56,5.13s.21,3.42.23,4.74l.08,2.07.09,2.06c0,.59.08,1.61.1,2.48s0,1.86,0,2.82c0,1.9-.12,3.83-.31,5.73-.39,3.82-8.23,2.59-7.89-.69.16-1.71.23-3.45.27-5.17q0-1.29,0-2.52l-.08-2.07-.1-2.33-.09-2.32,0-1.51c0-.57,0-1.16-.1-1.77-.08-1.22-.2-2.48-.34-3.74-.29-2.52-.71-5-1.21-7.47a68.77,68.77,0,0,0-1.82-7,59.46,59.46,0,0,0-2.34-6.13,35.24,35.24,0,0,0-5.61-8.83,20.64,20.64,0,0,0-6.35-4.68.86.86,0,0,1-.4-.61,2.62,2.62,0,0,1-.11-1,8.7,8.7,0,0,1,.63-2.67,7,7,0,0,1,1.46-2.37,2.49,2.49,0,0,1,.93-.61,1.15,1.15,0,0,1,.89.08,26.88,26.88,0,0,1,7,4.69,35.23,35.23,0,0,1,5.89,7.29c.68,1.11,2.76,1.27,4.7.22s2.86-3,2-4.39a41.22,41.22,0,0,0-6.62-8.3,2.36,2.36,0,0,1-.56-2.19,5.73,5.73,0,0,1,1.27-2.5,4.84,4.84,0,0,1,2.32-1.6,2.34,2.34,0,0,1,2.48.6c.89.92,1.85,1.77,2.66,2.79a3,3,0,0,0,2.38,1,4.36,4.36,0,0,0,2.79-.93,4.15,4.15,0,0,0,1.59-2.57,3.43,3.43,0,0,0-.8-2.71l-.93-1.09-1-1-2-2-2.17-1.86c-.37-.31-.71-.64-1.1-.92l-1.15-.83c-.78-.56-1.53-1.14-2.32-1.67l-2.45-1.47c-.41-.24-.81-.5-1.22-.73l-1.29-.63-2.56-1.26a64,64,0,0,0-22.47-5c-4.78-.2-5-8.13.39-7.9a79.85,79.85,0,0,1,14.37,2,65,65,0,0,1,13.76,5.07l1.65.81,1.59.95c1,.65,2.12,1.25,3.14,1.94l3,2.17a14.51,14.51,0,0,1,1.44,1.15l1.4,1.2A61.31,61.31,0,0,1,1139,873a4.88,4.88,0,0,0,2.65,1.81,3.92,3.92,0,0,0,3.05-.46,3.6,3.6,0,0,0,1.63-2.63,4.47,4.47,0,0,0-.9-3.35,70.68,70.68,0,0,0-15.5-15.73,69.15,69.15,0,0,0-19.81-10c-5.71-1.65-4.16-9.45,2.4-7.55a75.65,75.65,0,0,1,27.74,15.74c1,.86,2,1.81,2.91,2.75s1.89,1.87,2.77,2.85c1.71,2,3.49,4,5,6.07a87.84,87.84,0,0,1,8.07,12.93,5.78,5.78,0,0,0,2.6,2.64,3.64,3.64,0,0,0,3.15.17,3.47,3.47,0,0,0,1.91-2.55,6.17,6.17,0,0,0-.62-3.88,94.7,94.7,0,0,0-14.63-21.15,84.21,84.21,0,0,0-21.4-16.72c-3.37-1.72-4.27-4.32-3.46-6.13s3.53-2.73,7.26-.83a92.93,92.93,0,0,1,26.17,21.46,104.14,104.14,0,0,1,9.41,13.07,118.89,118.89,0,0,1,6.94,13.55,135.79,135.79,0,0,1,8.4,27.07c.88,4.47,1.58,8.93,2.08,13.43.26,2.25.46,4.5.61,6.81s.25,4.6.28,7.29h0s0,.06,0-.06v.06c.08,1.06.12,1.91.16,2.79l.09,2.54c0,1.66,0,3.31,0,4.93,0,3.24-.18,6.45-.44,9.67a135.36,135.36,0,0,1-3,19.54c-.81,3.5-3.25,4.73-5.14,4.18s-3.34-2.71-2.58-6a127.87,127.87,0,0,0,2.79-18.39c.25-3,.38-6.08.41-9.14,0-1.53,0-3.08,0-4.64l-.08-2.38c-.05-.82-.08-1.62-.15-2.58l0-.25v-.26c0-2-.09-3.63-.18-5.38s-.22-3.39-.37-5.06c-.32-3.33-.71-6.64-1.26-9.94-.42-2.67-2.61-4.49-4.74-4.06s-3.46,2.81-3.08,5.32c.7,4.34,1.2,8.67,1.48,13.11.19,3-1.78,4.67-3.75,4.7a4.15,4.15,0,0,1-4.16-4.2,124.66,124.66,0,0,0-6.5-32.81,4.09,4.09,0,0,0-5.25-2.72,4.2,4.2,0,0,0-2.23,5.34,114.81,114.81,0,0,1,4.54,17.69,118.08,118.08,0,0,1,1.73,18.18v1l.08,1a101.08,101.08,0,0,1,0,12.18,111.38,111.38,0,0,1-1.3,12.06A92.54,92.54,0,0,1,1152,968c-.57,2-1.29,3.89-2,5.82s-1.55,3.81-2.51,5.65a3.65,3.65,0,0,1-5.34,1.63A3.86,3.86,0,0,1,1140.41,976Z" transform="translate(-714.73 -622.15)"/><path class="cls-34" d="M1113.66,957.94a30.56,30.56,0,0,1-2.51,5.58,17.05,17.05,0,0,1-2.71,3.71.77.77,0,0,0-.1.63,3.11,3.11,0,0,0,.34.88,11.93,11.93,0,0,0,1.61,2.22,8,8,0,0,0,2.13,1.74,2.55,2.55,0,0,0,1,.3.93.93,0,0,0,.76-.33,24.81,24.81,0,0,0,3.81-5.19,38.36,38.36,0,0,0,3.14-7C1122.18,957.27,1114.48,955.35,1113.66,957.94Z" transform="translate(-714.73 -622.15)"/><path class="cls-35" d="M984,973.86a127.49,127.49,0,0,1-6.74-17.56c-.91-3.1-3.23-4.19-5.15-3.71s-3.41,2.66-2.44,6a135.74,135.74,0,0,0,7.16,18.66,5.9,5.9,0,0,0,2.84,3,3.55,3.55,0,0,0,3-.1,3.6,3.6,0,0,0,1.82-2.38A5.65,5.65,0,0,0,984,973.86Z" transform="translate(-714.73 -622.15)"/><path class="cls-36" d="M1115.23,1033.44a101.26,101.26,0,0,1-15.43,2.59l-3.74.26c-1.22.07-2.57.2-3.65.18l-6.85,0a141,141,0,0,1-28.18-3.27,110.7,110.7,0,0,1-28.17-10.56,101,101,0,0,1-24.56-18.68c-1-1-2-2.09-3-3.15l-2.78-3.28c-.94-1.09-1.79-2.22-2.65-3.36s-1.73-2.26-2.51-3.43c-1.89-2.79-4.5-3.16-6.18-2.11s-2.37,3.62-.32,6.65a113.77,113.77,0,0,0,22.54,24,111.43,111.43,0,0,0,28.68,16.4,128.11,128.11,0,0,0,30.38,7.57c5,.72,9.89.91,14.8,1.16h9.88l1-.05,4-.27c1.51-.12,3-.18,4.53-.38l4.66-.66a96,96,0,0,0,9.46-1.9,6.67,6.67,0,0,0,4-2.4,3.35,3.35,0,0,0,.61-3,3.55,3.55,0,0,0-2.18-2.17A7.78,7.78,0,0,0,1115.23,1033.44Z" transform="translate(-714.73 -622.15)"/><path class="cls-37" d="M991.79,949.61a106.17,106.17,0,0,1-2.45-10.88,7.64,7.64,0,0,0-.66-2,5.22,5.22,0,0,0-1.1-1.51,3.78,3.78,0,0,0-2.86-1.11,3.22,3.22,0,0,0-2.56,1.63,5.09,5.09,0,0,0-.66,1.95c0,.2,0,.41,0,.63l0,.61a6.38,6.38,0,0,0,.1,1.12,116,116,0,0,0,2.63,11.7c.82,3,3.23,3.79,5.09,3.18A4.08,4.08,0,0,0,991.79,949.61Z" transform="translate(-714.73 -622.15)"/><path class="cls-38" d="M1022.48,999A94.1,94.1,0,0,1,997,964.23a4.11,4.11,0,0,0-5.33-2.53c-1.83.71-3.18,2.86-1.93,5.7a106.85,106.85,0,0,0,11.46,20.18,97.94,97.94,0,0,0,16.19,17.47C1022.49,1009.17,1027,1002.64,1022.48,999Z" transform="translate(-714.73 -622.15)"/><path class="cls-39" d="M1123.91,1013.67a75.2,75.2,0,0,1-19.35,5.79c-1.62.24-3.25.49-4.87.69l-4.84.34c-.79,0-1.62.13-2.4.14h-2.31l-4.63,0a112.69,112.69,0,0,1-37.26-6.67c-1.76-.68-3.5-1.44-5.24-2.17-.88-.35-1.73-.78-2.58-1.21l-2.54-1.29a5.43,5.43,0,0,0-1.88-.59,4.06,4.06,0,0,0-1.64.07,3.86,3.86,0,0,0-2.36,1.76,3.69,3.69,0,0,0-.36,3,4.27,4.27,0,0,0,.84,1.54,6.14,6.14,0,0,0,1.71,1.27,99.81,99.81,0,0,0,19.59,7.78l5,1.31c1.67.42,3.35.68,5,1,3.36.71,6.68,1,10,1.45,1.67.24,3.31.29,5,.4l5,.27c3.28,0,6.49,0,9.81,0a101,101,0,0,0,21.24-3.12q3.15-1,6.27-2c2.07-.82,4.13-1.69,6.19-2.56,3.15-1.6,3.72-4.17,2.74-5.89S1126.67,1012.26,1123.91,1013.67Z" transform="translate(-714.73 -622.15)"/><path class="cls-40" d="M1130.86,989.67c-.67.71-1.42,1.32-2.12,2l-1.08,1-1.15.89c-.78.58-1.51,1.22-2.32,1.75l-2.46,1.57a24.38,24.38,0,0,1-2.55,1.42l-1.29.68-.65.34-.68.28a49.61,49.61,0,0,1-5.49,2.08c-.94.29-1.87.62-2.82.88l-2.9.65a55.27,55.27,0,0,1-5.89,1c-.49.07-1,.16-1.48.21l-1.5.1-3,.21c-1,.1-2,.08-3,.09h-5.53c-.81,0-1.62-.09-2.44-.13l-4.89-.28c-3.22-.43-6.47-.68-9.64-1.39a79.42,79.42,0,0,1-18.44-5.66,71.75,71.75,0,0,1-16.27-10.07,73.7,73.7,0,0,1-13.06-14,84.6,84.6,0,0,1-8.65-15.37,3.81,3.81,0,0,0-5.09-1.95,3.68,3.68,0,0,0-2.17,5.12,89.59,89.59,0,0,0,13.86,22.41,78,78,0,0,0,20.27,17,85.26,85.26,0,0,0,19.51,8.29l5.12,1.34,5.18,1c1.72.37,3.46.51,5.2.74s3.48.47,5.22.52l5.23.3c1.74.08,3.48,0,5.22,0a96,96,0,0,0,10.53-.54,67.06,67.06,0,0,0,20.7-5.58,54.31,54.31,0,0,0,16.22-11.38C1140.33,991.07,1134,986.3,1130.86,989.67Z" transform="translate(-714.73 -622.15)"/><path class="cls-41" d="M1025.23,949.66a82.52,82.52,0,0,1-3.8-12c-.23-1-.45-2-.63-3-.11-.5-.17-1-.26-1.47l-.14-1a8.49,8.49,0,0,1-.09-1.75v-3.93c0-5.1-7.93-5.11-7.93,0v5.25c0,.44.09.87.14,1.3l.2,1.36c.1.55.17,1.09.29,1.65.2,1.12.45,2.24.7,3.36a89.67,89.67,0,0,0,4.18,13.21C1019.68,956.82,1026.8,953.32,1025.23,949.66Z" transform="translate(-714.73 -622.15)"/><path class="cls-42" d="M1092.63,988.89c-.33,0-.63.06-1,.06h-6.47l-1-.06-4.22-.24a19.88,19.88,0,0,1-2.07-.2l-2-.25a69.46,69.46,0,0,1-15.53-3.62,55.81,55.81,0,0,1-24.4-17c-1-1.07-1.8-2.31-2.71-3.46-.44-.59-.83-1.23-1.25-1.84s-.84-1.22-1.21-1.88c-1-1.67-3.24-1.56-5-.62s-2.93,2.88-1.78,4.78a64.5,64.5,0,0,0,24.58,23.44c1.28.62,2.53,1.33,3.84,1.91l4,1.68,4.13,1.39a18.13,18.13,0,0,0,2.1.61l2.13.56a87.32,87.32,0,0,0,17.76,2.53l2.62.15,2.66,0h2.65a24.37,24.37,0,0,0,2.59-.07C1097.46,996.49,1096.44,988.62,1092.63,988.89Z" transform="translate(-714.73 -622.15)"/><path class="cls-43" d="M1043.31,950.72a62.59,62.59,0,0,1-6.07-15.11c-.4-1.57-2.48-1.92-4.42-1.52s-3.71,1.7-3.25,3.5a70,70,0,0,0,6.87,17.07C1038.27,957.71,1044.82,953.23,1043.31,950.72Z" transform="translate(-714.73 -622.15)"/><path class="cls-44" d="M1101,971.62a8,8,0,0,1-1,.32l-1.14.24-1.15.28-1.31.16-1.3.21a12.84,12.84,0,0,1-1.43.1l-1.46.11a12.44,12.44,0,0,1-1.6.07c-2.44,0-5,.11-7.27-.12l-1.77-.09a13.77,13.77,0,0,1-1.73-.14c-1.11-.15-2.22-.28-3.34-.4a61.39,61.39,0,0,1-11.9-3,40.36,40.36,0,0,1-9.49-5.16,10.85,10.85,0,0,1-1.19-.93c-.39-.32-.79-.63-1.19-.94l-1.12-1a13.82,13.82,0,0,1-1.11-1.06c-1.81-1.9-7.94,3.16-5.62,5.58a48.63,48.63,0,0,0,22.41,12.72l1.69.44a13.64,13.64,0,0,0,1.73.41l3.55.68c1.21.21,2.48.3,3.71.47l1.86.23,1.93.1,3.87.22,4,0h2l1.69-.13a30.78,30.78,0,0,0,3.32-.3l1.81-.26c.29-.05.61-.07.89-.13l.82-.2a25.14,25.14,0,0,0,3.19-.82,1.69,1.69,0,0,0,1.06-1.61,7,7,0,0,0-.54-2.73,9,9,0,0,0-1.31-2.39C1102,971.83,1101.47,971.46,1101,971.62Z" transform="translate(-714.73 -622.15)"/><path class="cls-45" d="M972.77,804.87V790.19c0-5.1-7.92-5.11-7.92,0v14.68C964.85,810,972.77,810,972.77,804.87Z" transform="translate(-714.73 -622.15)"/><path class="cls-46" d="M972.77,922.89V819.75c0-5.1-7.92-5.11-7.92,0V922.89C964.85,928,972.77,928,972.77,922.89Z" transform="translate(-714.73 -622.15)"/><path class="cls-47" d="M988.62,788.21V778.3c0-5.09-7.93-5.1-7.93,0v9.91C980.69,793.3,988.62,793.31,988.62,788.21Z" transform="translate(-714.73 -622.15)"/><path class="cls-48" d="M988.62,840.1v-38c0-5.1-7.93-5.11-7.93,0v38C980.69,845.2,988.62,845.21,988.62,840.1Z" transform="translate(-714.73 -622.15)"/><path class="cls-49" d="M988.82,935.14a18.91,18.91,0,0,1-.2-2.82V856.14c0-5.1-7.93-5.1-7.93,0v76c0,.64,0,1.28,0,1.92s.12,1.27.2,1.91a7.93,7.93,0,0,0,.26,1.37,9.46,9.46,0,0,0,.43,1.24,3.93,3.93,0,0,0,1.13,1.35,3.69,3.69,0,0,0,2.88.68,3.93,3.93,0,0,0,3.15-3.11A8.51,8.51,0,0,0,988.82,935.14Z" transform="translate(-714.73 -622.15)"/><path class="cls-50" d="M1008.61,950.4a95.5,95.5,0,0,1-3.16-11.71c-.2-1-.39-2-.54-3l-.22-1.41-.18-1.4a10.86,10.86,0,0,1,0-1.4V802.07c0-5.1-7.92-5.11-7.92,0V931.26a17.51,17.51,0,0,0,.13,2.8c.09.84.23,1.73.35,2.55s.26,1.6.42,2.39c.29,1.58.63,3.15,1,4.71.73,3.12,1.65,6.19,2.67,9.23a3.69,3.69,0,0,0,5,2.33A3.8,3.8,0,0,0,1008.61,950.4Z" transform="translate(-714.73 -622.15)"/><path class="cls-51" d="M1020.31,799.5V768c0-5.09-7.93-5.1-7.93,0v31.5C1012.38,804.59,1020.31,804.6,1020.31,799.5Z" transform="translate(-714.73 -622.15)"/><path class="cls-52" d="M1020.31,907.84V815c0-5.1-7.93-5.11-7.93,0v92.89C1012.38,912.93,1020.31,912.94,1020.31,907.84Z" transform="translate(-714.73 -622.15)"/><path class="cls-53" d="M1036.15,812.12V786.23c0-5.1-7.92-5.11-7.92,0v25.89C1028.23,817.22,1036.15,817.23,1036.15,812.12Z" transform="translate(-714.73 -622.15)"/><path class="cls-54" d="M1036.15,926.06v-92.7c0-5.09-7.92-5.1-7.92,0v92.7C1028.23,931.16,1036.15,931.16,1036.15,926.06Z" transform="translate(-714.73 -622.15)"/><path class="cls-55" d="M1000.5,622.15a35.65,35.65,0,0,0-35.65,35.65v98.13c0,5.09,7.93,5.09,7.93,0V687.31a4,4,0,1,1,7.91,0V767c0,5.1,7.93,5.11,7.93,0V706.33a4,4,0,1,1,7.92,0v78.9c0,5.1,7.92,5.11,7.92,0V679a4,4,0,0,1,4-4h0a4,4,0,0,1,4,4v61.87c0,5.1,7.93,5.11,7.93,0V694.44a4,4,0,1,1,7.91,0v64.65c0,5.1,7.93,5.11,7.93,0V657.8a35.65,35.65,0,0,0-35.65-35.65Z" transform="translate(-714.73 -622.15)"/></svg>