<svg xmlns="http://www.w3.org/2000/svg" xmlns:xlink="http://www.w3.org/1999/xlink" viewBox="0 0 437.38 431.04"><defs><style>.cls-1{fill:url(#linear-gradient);}.cls-2{fill:url(#linear-gradient-2);}.cls-3{fill:url(#linear-gradient-3);}.cls-4{fill:url(#linear-gradient-4);}.cls-5{fill:url(#linear-gradient-5);}.cls-6{fill:url(#linear-gradient-6);}.cls-7{fill:url(#linear-gradient-7);}.cls-8{fill:url(#linear-gradient-8);}.cls-9{fill:url(#linear-gradient-9);}.cls-10{fill:url(#linear-gradient-10);}.cls-11{fill:url(#linear-gradient-11);}.cls-12{fill:url(#linear-gradient-12);}.cls-13{fill:url(#linear-gradient-13);}.cls-14{fill:url(#linear-gradient-14);}.cls-15{fill:url(#linear-gradient-15);}.cls-16{fill:url(#linear-gradient-16);}.cls-17{fill:url(#linear-gradient-17);}.cls-18{fill:url(#linear-gradient-18);}.cls-19{fill:url(#linear-gradient-19);}.cls-20{fill:url(#linear-gradient-20);}.cls-21{fill:url(#linear-gradient-21);}.cls-22{fill:url(#linear-gradient-22);}.cls-23{fill:url(#linear-gradient-23);}.cls-24{fill:url(#linear-gradient-24);}.cls-25{fill:url(#linear-gradient-25);}.cls-26{fill:url(#linear-gradient-26);}.cls-27{fill:url(#linear-gradient-27);}.cls-28{fill:url(#linear-gradient-28);}.cls-29{fill:url(#linear-gradient-29);}.cls-30{fill:url(#linear-gradient-30);}.cls-31{fill:url(#linear-gradient-31);}.cls-32{fill:url(#linear-gradient-32);}.cls-33{fill:url(#linear-gradient-33);}.cls-34{fill:url(#linear-gradient-34);}.cls-35{fill:url(#linear-gradient-35);}.cls-36{fill:url(#linear-gradient-36);}.cls-37{fill:url(#linear-gradient-37);}.cls-38{fill:url(#linear-gradient-38);}.cls-39{fill:url(#linear-gradient-39);}.cls-40{fill:url(#linear-gradient-40);}.cls-41{fill:url(#linear-gradient-41);}.cls-42{fill:url(#linear-gradient-42);}.cls-43{fill:url(#linear-gradient-43);}.cls-44{fill:url(#linear-gradient-44);}.cls-45{fill:url(#linear-gradient-45);}.cls-46{fill:url(#linear-gradient-46);}.cls-47{fill:url(#linear-gradient-47);}.cls-48{fill:url(#linear-gradient-48);}.cls-49{fill:url(#linear-gradient-49);}.cls-50{fill:url(#linear-gradient-50);}.cls-51{fill:url(#linear-gradient-51);}.cls-52{fill:url(#linear-gradient-52);}.cls-53{fill:url(#linear-gradient-53);}.cls-54{fill:url(#linear-gradient-54);}.cls-55{fill:#009bfb;}</style><linearGradient id="linear-gradient" x1="6.06" y1="136.17" x2="373.56" y2="397.92" gradientUnits="userSpaceOnUse"><stop offset="0" stop-color="#f0f"/><stop offset="1" stop-color="aqua"/></linearGradient><linearGradient id="linear-gradient-2" x1="15.11" y1="123.47" x2="382.61" y2="385.22" xlink:href="#linear-gradient"/><linearGradient id="linear-gradient-3" x1="3.09" y1="140.35" x2="370.59" y2="402.1" xlink:href="#linear-gradient"/><linearGradient id="linear-gradient-4" x1="26.13" y1="108" x2="393.63" y2="369.75" xlink:href="#linear-gradient"/><linearGradient id="linear-gradient-5" x1="-16.34" y1="167.62" x2="351.16" y2="429.37" xlink:href="#linear-gradient"/><linearGradient id="linear-gradient-6" x1="25.69" y1="108.62" x2="393.19" y2="370.37" xlink:href="#linear-gradient"/><linearGradient id="linear-gradient-7" x1="1.38" y1="142.75" x2="368.88" y2="404.5" xlink:href="#linear-gradient"/><linearGradient id="linear-gradient-8" x1="11.25" y1="128.9" x2="378.75" y2="390.65" xlink:href="#linear-gradient"/><linearGradient id="linear-gradient-9" x1="1.68" y1="142.32" x2="369.18" y2="404.07" xlink:href="#linear-gradient"/><linearGradient id="linear-gradient-10" x1="12.47" y1="127.18" x2="379.97" y2="388.93" xlink:href="#linear-gradient"/><linearGradient id="linear-gradient-11" x1="20.96" y1="115.26" x2="388.46" y2="377.01" xlink:href="#linear-gradient"/><linearGradient id="linear-gradient-12" x1="21.55" y1="114.43" x2="389.05" y2="376.18" xlink:href="#linear-gradient"/><linearGradient id="linear-gradient-13" x1="9.41" y1="131.48" x2="376.91" y2="393.23" xlink:href="#linear-gradient"/><linearGradient id="linear-gradient-14" x1="30.11" y1="102.41" x2="397.61" y2="364.16" xlink:href="#linear-gradient"/><linearGradient id="linear-gradient-15" x1="20.96" y1="115.26" x2="388.46" y2="377.01" xlink:href="#linear-gradient"/><linearGradient id="linear-gradient-16" x1="39.78" y1="88.84" x2="407.28" y2="350.59" xlink:href="#linear-gradient"/><linearGradient id="linear-gradient-17" x1="-41.12" y1="202.42" x2="326.38" y2="464.17" xlink:href="#linear-gradient"/><linearGradient id="linear-gradient-18" x1="-22.4" y1="176.13" x2="345.1" y2="437.88" xlink:href="#linear-gradient"/><linearGradient id="linear-gradient-19" x1="-50.23" y1="215.21" x2="317.27" y2="476.96" xlink:href="#linear-gradient"/><linearGradient id="linear-gradient-20" x1="-41.67" y1="203.2" x2="325.83" y2="464.95" xlink:href="#linear-gradient"/><linearGradient id="linear-gradient-21" x1="-15.74" y1="166.79" x2="351.76" y2="428.54" xlink:href="#linear-gradient"/><linearGradient id="linear-gradient-22" x1="-21.62" y1="174.99" x2="345.88" y2="436.74" xlink:href="#linear-gradient"/><linearGradient id="linear-gradient-23" x1="-63.21" y1="233.44" x2="304.29" y2="495.19" xlink:href="#linear-gradient"/><linearGradient id="linear-gradient-24" x1="-31.29" y1="188.61" x2="336.21" y2="450.36" xlink:href="#linear-gradient"/><linearGradient id="linear-gradient-25" x1="-65.77" y1="237.03" x2="301.73" y2="498.78" xlink:href="#linear-gradient"/><linearGradient id="linear-gradient-26" x1="-22.41" y1="176.15" x2="345.09" y2="437.9" xlink:href="#linear-gradient"/><linearGradient id="linear-gradient-27" x1="-56.43" y1="223.91" x2="311.07" y2="485.66" xlink:href="#linear-gradient"/><linearGradient id="linear-gradient-28" x1="45.06" y1="81.42" x2="412.56" y2="343.17" xlink:href="#linear-gradient"/><linearGradient id="linear-gradient-29" x1="38.44" y1="90.72" x2="405.94" y2="352.47" xlink:href="#linear-gradient"/><linearGradient id="linear-gradient-30" x1="60.49" y1="59.76" x2="427.99" y2="321.51" xlink:href="#linear-gradient"/><linearGradient id="linear-gradient-31" x1="45.28" y1="81.11" x2="412.78" y2="342.86" xlink:href="#linear-gradient"/><linearGradient id="linear-gradient-32" x1="77.85" y1="35.38" x2="445.35" y2="297.13" xlink:href="#linear-gradient"/><linearGradient id="linear-gradient-33" x1="51.94" y1="71.76" x2="419.44" y2="333.51" xlink:href="#linear-gradient"/><linearGradient id="linear-gradient-34" x1="19.67" y1="117.07" x2="387.17" y2="378.82" xlink:href="#linear-gradient"/><linearGradient id="linear-gradient-35" x1="11.38" y1="128.72" x2="378.88" y2="390.47" xlink:href="#linear-gradient"/><linearGradient id="linear-gradient-36" x1="30.8" y1="101.44" x2="398.3" y2="363.19" xlink:href="#linear-gradient"/><linearGradient id="linear-gradient-37" x1="17.26" y1="120.45" x2="384.76" y2="382.2" xlink:href="#linear-gradient"/><linearGradient id="linear-gradient-38" x1="20.33" y1="116.15" x2="387.83" y2="377.9" xlink:href="#linear-gradient"/><linearGradient id="linear-gradient-39" x1="30.27" y1="102.18" x2="397.77" y2="363.93" xlink:href="#linear-gradient"/><linearGradient id="linear-gradient-40" x1="40.41" y1="87.95" x2="407.91" y2="349.7" xlink:href="#linear-gradient"/><linearGradient id="linear-gradient-41" x1="29.18" y1="103.72" x2="396.68" y2="365.47" xlink:href="#linear-gradient"/><linearGradient id="linear-gradient-42" x1="40.47" y1="87.87" x2="407.97" y2="349.62" xlink:href="#linear-gradient"/><linearGradient id="linear-gradient-43" x1="38.1" y1="91.2" x2="405.6" y2="352.95" xlink:href="#linear-gradient"/><linearGradient id="linear-gradient-44" x1="83.85" y1="26.96" x2="451.35" y2="288.71" xlink:href="#linear-gradient"/><linearGradient id="linear-gradient-45" x1="54.49" y1="68.18" x2="421.99" y2="329.93" xlink:href="#linear-gradient"/><linearGradient id="linear-gradient-46" x1="94.02" y1="12.69" x2="461.52" y2="274.44" xlink:href="#linear-gradient"/><linearGradient id="linear-gradient-47" x1="78.97" y1="33.82" x2="446.47" y2="295.57" xlink:href="#linear-gradient"/><linearGradient id="linear-gradient-48" x1="49.54" y1="75.13" x2="417.04" y2="336.88" xlink:href="#linear-gradient"/><linearGradient id="linear-gradient-49" x1="61.18" y1="58.79" x2="428.68" y2="320.54" xlink:href="#linear-gradient"/><linearGradient id="linear-gradient-50" x1="102.8" y1="0.36" x2="470.3" y2="262.11" xlink:href="#linear-gradient"/><linearGradient id="linear-gradient-51" x1="71.91" y1="43.72" x2="439.41" y2="305.47" xlink:href="#linear-gradient"/><linearGradient id="linear-gradient-52" x1="101.15" y1="2.67" x2="468.65" y2="264.42" xlink:href="#linear-gradient"/><linearGradient id="linear-gradient-53" x1="69.11" y1="47.65" x2="436.61" y2="309.4" xlink:href="#linear-gradient"/><linearGradient id="linear-gradient-54" x1="130.81" y1="-38.98" x2="498.31" y2="222.77" xlink:href="#linear-gradient"/></defs><title>Asset 2</title><g id="Layer_2" data-name="Layer 2"><g id="Layer_1-2" data-name="Layer 1"><path class="cls-1" d="M167,252.17a76.54,76.54,0,0,0-1.42-9c-.33-1.55-2.11-1.9-3.65-1.5s-2.9,1.48-2.6,2.89a67.69,67.69,0,0,1,1.3,8.19c.12,1.39,1.76,2,3.35,1.87S167.15,253.73,167,252.17Z"/><path class="cls-2" d="M177.77,239c-.29-1.16-.59-2.32-.91-3.47s-.66-2.29-1.06-3.41c-1.22-3.51-7.15-1.09-6.07,2,.37,1,.64,2.09,1,3.13s.57,2.13.84,3.2C172.28,243.81,178.59,242.7,177.77,239Z"/><path class="cls-3" d="M180.07,278.39V257.27c0-.47,0-1,0-1.54-.06-2.2-.25-4.5-.51-6.78-.23-1.85-2-2.52-3.54-2.28s-3,1.34-2.82,3c.25,2.1.42,4.24.48,6.19v22.41C173.67,282.44,180.07,282.52,180.07,278.39Z"/><path class="cls-4" d="M204.64,243.53a105.69,105.69,0,0,0-8.17-28.72c-1-2.27-3-2.67-4.45-1.94a3.33,3.33,0,0,0-1.38,4.56,99.68,99.68,0,0,1,7.67,27,3.26,3.26,0,0,0,3.59,3A3.19,3.19,0,0,0,204.64,243.53Z"/><path class="cls-5" d="M192.35,248.43a78.21,78.21,0,0,1,.51,9.25V319.8a3.24,3.24,0,0,0,3.2,3.23,3.17,3.17,0,0,0,3.2-3.18V259.29a3.69,3.69,0,0,1,1-2.47,3,3,0,0,1,2.19-1,2.79,2.79,0,0,1,2.21,1,4.14,4.14,0,0,1,1,2.56v50.94a3.23,3.23,0,0,0,3.2,3.22,3.16,3.16,0,0,0,3.2-3.16V274.31c0-4.11,6.4-4,6.4.09v84.18c0,4.11-6.4,4.09-6.4,0V331.37a3.22,3.22,0,0,0-3.2-3.21,3.18,3.18,0,0,0-3.2,3.17v12.52c0,4.11-6.4,4.09-6.4,0v-3.9a3.22,3.22,0,0,0-3.2-3.22,3.18,3.18,0,0,0-3.2,3.19v39.71c0,4.13-6.39,4.12-6.39,0V335.06a3.23,3.23,0,0,0-3.2-3.22,3.18,3.18,0,0,0-3.2,3.19v29.85c0,4.12-6.41,4.11-6.41,0V326.33a3.22,3.22,0,0,0-3.19-3.22,3.17,3.17,0,0,0-3.2,3.18v29.57c0,4.14-6.4,4.12-6.4,0V262.63c0-4.14,6.4-4,6.4.09v38.62a3.24,3.24,0,0,0,3.2,3.23,3.16,3.16,0,0,0,3.19-3.17v-9.14c0-4.13,6.41-4.05,6.41.07v24.5a3.24,3.24,0,0,0,3.2,3.23,3.18,3.18,0,0,0,3.2-3.18V257.24a74.83,74.83,0,0,0-.47-8.12C185.52,245.21,191.83,244.16,192.35,248.43Z"/><path class="cls-6" d="M218.45,255.35c-.06-2.57-.2-4.85-.4-7.16l-.34-3.41-.44-3.37a125.57,125.57,0,0,0-2.67-13.32c-.66-2.62-2.61-3.47-4.14-3s-2.68,2.14-2.06,4.61a117.32,117.32,0,0,1,2.54,12.64,113.06,113.06,0,0,1,1.11,13.16,8.06,8.06,0,0,0,.09,1,7.85,7.85,0,0,0,.2,1,1.49,1.49,0,0,0,.31.62,2.85,2.85,0,0,0,.41.44,3.44,3.44,0,0,0,2.2.8,3,3,0,0,0,2.61-1.16,1.64,1.64,0,0,0,.32-.64,7.54,7.54,0,0,0,.2-1.11A9.53,9.53,0,0,0,218.45,255.35Z"/><path class="cls-7" d="M97,204.37c-1.49.26-2.91.63-4.38.92s-2.79.81-4.19,1.18c-2.85,1-.46,7,2,6.1,1.26-.33,2.47-.75,3.76-1.06s2.62-.6,4-.85C101,210.25,100.22,203.89,97,204.37Z"/><path class="cls-8" d="M158.27,224.51a40.43,40.43,0,0,0-17.39-15.79,53.77,53.77,0,0,0-12.1-4.06c-1.08-.26-2.25-.37-3.37-.58l-1.7-.29c-.58-.09-1.18-.12-1.77-.18l-3.55-.34-3.67-.12-2.07-.07c-.69,0-1.39,0-2.09,0-1.39.06-2.8.06-4.18.13-3.31.3-2.59,6.67.39,6.39,1.14-.06,2.32-.06,3.47-.11s2.33-.1,3.46,0l3.43.1a14.91,14.91,0,0,1,1.67.12l1.63.16c2.23.12,4.22.57,6.3.86,1,.2,1.93.48,2.9.69.48.12,1,.19,1.44.35l1.34.44a35.05,35.05,0,0,1,17,10.89c.63.7,1.18,1.51,1.8,2.25s1.14,1.6,1.64,2.49C154.05,229.92,159.76,227,158.27,224.51Z"/><path class="cls-9" d="M83.18,194.75,79.89,196c-1.09.43-2.13.95-3.19,1.41-1.68.7-1.68,2.62-1,4s2.15,2.4,3.65,1.78c1-.41,1.89-.88,2.87-1.27l3-1.1a2.45,2.45,0,0,0,1.47-1.53,3.94,3.94,0,0,0,0-2.28,3.69,3.69,0,0,0-1.28-1.92A2.29,2.29,0,0,0,83.18,194.75Z"/><path class="cls-10" d="M120.66,190.64l-1.73-.17-1.76-.05-3.52-.11c-1.17-.07-2.35,0-3.53,0l-3.53.1c-1.18,0-2.33.19-3.5.27s-2.33.19-3.49.32l-3.42.53-1.72.25c-.57.09-1.12.24-1.68.36-3.65.8-2,7,1.28,6.27.52-.11,1-.25,1.55-.33l1.59-.24,3.18-.49c1.08-.12,2.18-.19,3.26-.29s2.16-.24,3.28-.26l3.33-.09c1.11,0,2.23-.1,3.33,0l3.3.11,1.66,0,1.61.15C123.56,197.34,124.43,191,120.66,190.64Z"/><path class="cls-11" d="M172.83,224.66a63.29,63.29,0,0,0-5.93-10.29,60.63,60.63,0,0,0-7.74-8.71c-1.51-1.21-2.91-2.55-4.54-3.61-.8-.54-1.54-1.17-2.39-1.65l-2.5-1.5-.62-.38-.66-.33-1.31-.65c-.89-.42-1.72-.93-2.65-1.27a58.85,58.85,0,0,0-5.56-2.1c-1.12-.34-2.2-.74-3.34-1l-3.43-.81c-1.76-.47-3,1.05-3.27,2.6s.3,3.21,1.89,3.65a49.61,49.61,0,0,1,5.3,1.41l2.58.82,2.45,1,1.23.48c.4.18.78.4,1.17.59l2.33,1.15c.76.42,1.47.89,2.21,1.33l1.11.65c.36.24.69.5,1,.75a47.67,47.67,0,0,1,13.9,15l.8,1.33c.26.45.48.93.73,1.39.49.92,1,1.84,1.39,2.83a2.25,2.25,0,0,0,1.69,1.28,3.91,3.91,0,0,0,2.27-.25,3.75,3.75,0,0,0,1.78-1.47A2.37,2.37,0,0,0,172.83,224.66Z"/><path class="cls-12" d="M189.6,233.65A86.89,86.89,0,0,0,181.78,214a71,71,0,0,0-13.05-16.86,68.7,68.7,0,0,0-13.9-10A78.92,78.92,0,0,0,139,180.79a109.86,109.86,0,0,0-33.48-3.12c-2.55.21-5.11.41-7.66.69l-3.81.58-1.9.29c-.64.11-1.26.27-1.89.4-4.22.92-2.56,7.11,1.27,6.27,1.6-.4,3.24-.58,4.87-.84l2.44-.38c.81-.11,1.64-.15,2.46-.23,1.65-.13,3.29-.33,5-.4l5-.14,1.24,0,1.24,0,2.48.08c1.65.06,3.32,0,4.95.26l4.93.47,4.86.8a73.08,73.08,0,0,1,15,4.42,60.76,60.76,0,0,1,13.5,7.66,63.66,63.66,0,0,1,19.15,24.19,82.66,82.66,0,0,1,4.86,13.51,3.07,3.07,0,0,0,3.84,2.17A3,3,0,0,0,189.6,233.65Z"/><path class="cls-13" d="M85.28,167.61A91.8,91.8,0,0,0,57,179c-4.33,2.74-.55,7.92,3.35,5.45a85.56,85.56,0,0,1,26.4-10.56A3.22,3.22,0,1,0,85.28,167.61Z"/><path class="cls-14" d="M181.9,192.31A79.59,79.59,0,0,0,166.28,179a84.86,84.86,0,0,0-18.23-8.77l-4.73-1.51c-1.58-.45-3.17-.79-4.76-1.18l-2.38-.56c-.79-.18-1.58-.28-2.37-.42l-4.76-.78c-1.58-.23-3.15-.33-4.72-.5s-3.16-.35-4.71-.37l-4.67-.15-2.33-.07c-.78,0-1.55,0-2.32,0l-5.33.16c-1.78.09-3.58.29-5.37.44a3.47,3.47,0,0,0-2.53,1.23,3.22,3.22,0,0,0,.52,4.37,3.49,3.49,0,0,0,2.63.77l4.44-.39,4.42-.14c1.48,0,3-.14,4.43-.06l4.44.13,2.22.07,2.23.21,4.46.43c1.49.14,3,.45,4.48.68s3,.43,4.46.82l4.45,1.07c.75.16,1.48.4,2.21.63l2.2.7,2.2.71c.74.23,1.45.56,2.17.84,1.44.59,2.89,1.14,4.31,1.78a76.17,76.17,0,0,1,16,9.94,53.67,53.67,0,0,1,4.07,3.6,51.38,51.38,0,0,1,3.79,3.88,3.41,3.41,0,0,0,4.81.64C183.23,196.23,183.64,194.24,181.9,192.31Z"/><path class="cls-15" d="M95.49,152.85a121.94,121.94,0,0,0-26.85,6.34c-2.65,1-3.35,3-2.73,4.46s2.46,2.46,4.94,1.55a114.6,114.6,0,0,1,25.39-6C101.14,158.76,100.73,152.37,95.49,152.85Z"/><path class="cls-16" d="M203.66,200.71a95.78,95.78,0,0,0-13.87-18.77A92.5,92.5,0,0,0,171.23,167a101.54,101.54,0,0,0-10.39-5.52,106.36,106.36,0,0,0-10.7-4.05,107.56,107.56,0,0,0-10.75-2.87c-.9-.23-1.78-.37-2.66-.51l-2.66-.45-2.65-.43-1.33-.21-1.31-.13-6-.57c-.5,0-1-.1-1.5-.13l-1.46-.05-2.94-.1c-5.18-.14-5.07,6.26-.19,6.4,1.63.06,3.24.07,4.89.19l5,.47,2.48.25c.84.1,1.68.25,2.52.38l5,.84c1.68.32,3.37.76,5.06,1.16l2.52.61c.85.21,1.69.51,2.53.77,1.69.53,3.37,1.06,5,1.63l5,2a90,90,0,0,1,19,11.08,87.51,87.51,0,0,1,15.54,15.71,89.79,89.79,0,0,1,6.87,10.36c1.33,2.33,3.31,2.81,4.75,2.08S205.09,203.22,203.66,200.71Z"/><path class="cls-17" d="M53,269.83a79.49,79.49,0,0,0,3.82,8.54c.74,1.48,2.56,1.41,4,.64s2.41-2.2,1.73-3.56A74,74,0,0,1,59,267.56c-.54-1.36-2.22-1.48-3.75-1S52.38,268.32,53,269.83Z"/><path class="cls-18" d="M75.36,212.73a50.6,50.6,0,0,0-16.57,18.94,73.25,73.25,0,0,0-5.16,12.84,81.78,81.78,0,0,0-2.79,13.89c-.05.63-.13,1.28-.16,1.86l0,.45c0,.12,0,.36,0,.36s0,.21,0,.31a3.9,3.9,0,0,0,.1,1.13c.07.25.42.21,1.13.49a4.82,4.82,0,0,0,2.25-.09,5.57,5.57,0,0,0,2-1,1.29,1.29,0,0,1,.91-.52h0v0h0v-.16c0-.47,0-.9.11-1.42.2-2,.49-4.18.91-6.33A72,72,0,0,1,61.58,241,50.57,50.57,0,0,1,74.2,221.75l2.29-1.95L78.93,218C80.93,216.8,77.8,211.21,75.36,212.73Z"/><path class="cls-19" d="M46.08,285.51c1.17,2.14,2.36,4.26,3.67,6.31,1,1.63,2.89,1.46,4.19.58s2.12-2.48,1.23-4c-1.23-1.92-2.35-3.91-3.44-5.91C50.15,279.41,44.34,282.12,46.08,285.51Z"/><path class="cls-20" d="M38.88,251.56c-.38,2.28-.71,4.58-.89,6.83l-.13,1.68-.07,1.33A12.76,12.76,0,0,0,38,264c0,.43.16.84.24,1.26l.13.64.2.78c.25,1,.58,2.1.9,3.17s.73,2.16,1.09,3.24l1.24,3.23c1.48,3.49,7.28.77,5.93-2.4l-1.16-3c-.32-1-.7-2-1-3s-.59-1.95-.8-2.83l-.18-.68-.08-.44a7.78,7.78,0,0,1-.16-.84,7.36,7.36,0,0,1-.11-1.69l0-1,.11-1.51c.17-2.05.48-4.19.83-6.31.29-1.7-1.1-2.88-2.66-3.2S39.2,249.71,38.88,251.56Z"/><path class="cls-21" d="M74.9,198.21c-1.73,1-3.52,1.83-5.15,2.94a58.37,58.37,0,0,0-4.86,3.37,65.4,65.4,0,0,0-8.59,8.14,73.2,73.2,0,0,0-7,9.73,76.73,76.73,0,0,0-5.34,11c-.9,2.21-1.67,4.48-2.38,6.78-1.05,3.63,5.17,5.15,6.12,1.86a71.76,71.76,0,0,1,9.59-20.19,54.49,54.49,0,0,1,6.9-8.18,51,51,0,0,1,8.22-6.6c.88-.54,1.72-1.13,2.62-1.63l2.74-1.47c1.42-.72,1.54-2.46.88-3.93S76.51,197.4,74.9,198.21Z"/><path class="cls-22" d="M83.42,181.29a78.64,78.64,0,0,0-19.48,8.39,73.19,73.19,0,0,0-16.38,13.58,85.86,85.86,0,0,0-16.93,29.23,103.62,103.62,0,0,0-4.26,16.32c-.49,2.77-.88,5.56-1.13,8.38-.06.7-.1,1.42-.16,2.12s-.08,1.51-.1,2.26a22.11,22.11,0,0,0,.34,4.52,62.78,62.78,0,0,0,1.95,7.73c.39,1.24.82,2.45,1.24,3.67s.9,2.41,1.39,3.6c1.67,4,7.47,1.23,5.92-2.41a91.15,91.15,0,0,1-3.19-9.3c-.2-.77-.42-1.57-.59-2.33s-.34-1.47-.44-2.23a17.54,17.54,0,0,1-.16-4.52,93.7,93.7,0,0,1,3.27-19.4,84.81,84.81,0,0,1,13.46-28.32,67.53,67.53,0,0,1,23.67-20,73.35,73.35,0,0,1,13.34-5.16,2.89,2.89,0,0,0,1.89-1.59,3.42,3.42,0,0,0,.21-2.3,3.32,3.32,0,0,0-1.3-2A3,3,0,0,0,83.42,181.29Z"/><path class="cls-23" d="M19,288.1a123.65,123.65,0,0,0,6.51,13,119.46,119.46,0,0,0,8,12.22,3.15,3.15,0,0,0,4.67.85,3.27,3.27,0,0,0,.46-4.68A112.55,112.55,0,0,1,31,297.94a115.82,115.82,0,0,1-6.18-12.36,3.27,3.27,0,0,0-4.27-1.95A3.17,3.17,0,0,0,19,288.1Z"/><path class="cls-24" d="M42.33,190.28A94.53,94.53,0,0,0,20.6,222.86,116.34,116.34,0,0,0,14.89,241c-.67,3.09-1.29,6.18-1.72,9.33-.22,1.58-.43,3.15-.58,4.78-.08.8-.16,1.61-.21,2.45l-.09,1.25-.07,1.58a36.33,36.33,0,0,0,.4,7.29c.18,1.2.45,2.4.69,3.59.07.33.13.55.19.79l.18.72.38,1.45c.69,2.46,2.59,3.12,4.11,2.64a3.31,3.31,0,0,0,2.06-4.32l-.59-2.3c-.19-.86-.38-1.78-.55-2.66s-.27-1.8-.39-2.71-.15-1.81-.12-2.72.05-1.82.09-2.73l.16-2.35c.13-1.52.29-3,.49-4.52A112.54,112.54,0,0,1,23.07,235a95.89,95.89,0,0,1,16.52-32.26l1.67-2.07c.56-.69,1.19-1.33,1.78-2l1.81-2,1.92-1.86A3.72,3.72,0,0,0,48,192.32a3.12,3.12,0,0,0-3-3.27A3.89,3.89,0,0,0,42.33,190.28Z"/><path class="cls-25" d="M2.59,280.65a122.37,122.37,0,0,0,4.75,12.8c.85,2.06,1.82,4,2.76,6s2,3.93,3.05,5.84c2.57,4.56,8,1.19,5.6-3.09-1-1.82-1.94-3.71-2.91-5.57s-1.81-3.78-2.63-5.73a116.46,116.46,0,0,1-4.5-12.14c-.77-2.49-2.65-3.54-4.21-3.15S1.76,278,2.59,280.65Z"/><path class="cls-26" d="M49.83,168.32a96.29,96.29,0,0,0-18.06,14.37,104.2,104.2,0,0,0-14,17.77A115.81,115.81,0,0,0,8,219.93a127.3,127.3,0,0,0-6,20.19C1.16,244,.5,248,0,252.07c-.3,2.72,1.2,4.25,2.79,4.38s3.29-1.11,3.57-3.65a123.37,123.37,0,0,1,3.88-19.6,115.55,115.55,0,0,1,7.11-18.91,103.8,103.8,0,0,1,10.86-17.83A93.3,93.3,0,0,1,43.12,181c1.56-1.36,3.25-2.56,4.92-3.79s3.41-2.34,5.16-3.44c2.27-1.47,2.71-3.46,1.93-4.87S52.29,166.74,49.83,168.32Z"/><path class="cls-27" d="M152,332.75a34,34,0,0,0-13.13-17.44,28.71,28.71,0,0,0-8.69-4.39,18.94,18.94,0,0,0-4.39-1.05c-.74-.09-1.48-.09-2.21-.11a14.3,14.3,0,0,0-2.17,0A59.24,59.24,0,0,1,95,306.62c-7.89-2.86-14.93-7.89-21.16-14.69-1-1-2.66-.57-3.88.46s-2,2.7-.86,3.85a69.55,69.55,0,0,0,7.55,7.16l2,1.54,1,.77,1.06.68,2.09,1.4L85,309a47.14,47.14,0,0,0,4.43,2.24,21.74,21.74,0,0,0,2.29,1l2.32.91c.79.25,1.59.47,2.39.72s1.57.53,2.4.7l2.46.53a20.46,20.46,0,0,0,2.5.49c1.28.17,2.15,1.75,1.93,3.5a2.9,2.9,0,0,1-3,2.81,30.51,30.51,0,0,1-3.19-.64c-1-.25-2.13-.42-3.16-.72-2-.68-4.15-1.15-6.11-2a61.26,61.26,0,0,1-11.48-5.74,73.73,73.73,0,0,1-19.2-18c-2.06-2.74-7.38.83-5.11,3.87,8.87,11.87,20.65,21.12,34.12,26.09a3.2,3.2,0,0,1,1.67,4,3,3,0,0,1-3.89,2l-3.57-1.38c-1.16-.52-2.3-1.09-3.45-1.63l-1.73-.82L76,326c-1.11-.64-2.23-1.24-3.32-1.9a90.37,90.37,0,0,1-12.19-9.26,100.59,100.59,0,0,1-10.38-11.35,102.48,102.48,0,0,1-8.5-12.89,3.08,3.08,0,0,0-4.27-1.15A3,3,0,0,0,36,293.68a108.68,108.68,0,0,0,12.64,18.09A92.29,92.29,0,0,0,65,326.69,81.41,81.41,0,0,0,84.75,337a89.38,89.38,0,0,0,21.69,4.73,3.21,3.21,0,1,1-.56,6.37,92.67,92.67,0,0,1-27-6.51c-.54-.22-1.1-.41-1.63-.65l-1.58-.75-3.16-1.51c-2.09-1-4.08-2.26-6.12-3.39s-3.91-2.53-5.81-3.87l-2.77-2.11c-.92-.69-1.84-1.4-2.7-2.17-3.41-3-7.85,1.67-4.11,4.9a101,101,0,0,0,18.62,12.36,95.79,95.79,0,0,0,21.09,7.71c2,.45,3.43,2.22,3.1,3.95s-2.39,2.76-4.59,2.26a100.54,100.54,0,0,1-30.68-12.87,111.89,111.89,0,0,1-24.68-21.36c-3.19-3.85-8.28,0-4.84,4.18a117.26,117.26,0,0,0,19.8,18.31A109.08,109.08,0,0,0,73.09,359.9a107.53,107.53,0,0,0,26.69,6.8,121.86,121.86,0,0,0,26.47.45c1.26-.1,2.49-.25,3.7-.46a31.92,31.92,0,0,0,3.46-.92,38.29,38.29,0,0,0,6.3-2.65,30.15,30.15,0,0,0,9.18-8.34,25.14,25.14,0,0,0,3.09-22Z"/><path class="cls-28" d="M411.24,330.6a74.34,74.34,0,0,1-13.43,12.13c-2.58,1.71-3,4-2.19,5.4s3.16,2,6,.07A81.54,81.54,0,0,0,416.29,335c2.28-2.6,1.89-5,.57-6S413.31,328.24,411.24,330.6Z"/><path class="cls-29" d="M388.51,332.89l-2.1,1.34-2.16,1.19c-.73.39-1.45.81-2.18,1.16l-2.23,1c-2.28,1.08-2.88,3-2.28,4.57s2.47,2.71,5,1.52l2.45-1.13c.82-.39,1.61-.85,2.41-1.28l2.39-1.32,2.33-1.48c2.42-1.53,2.51-3.81,1.51-5.12S390.66,331.54,388.51,332.89Z"/><path class="cls-30" d="M416,290.79a72.22,72.22,0,0,1-5.9,17.56A61.7,61.7,0,0,1,399.26,324a4.22,4.22,0,0,0-1.32,2.82,3.21,3.21,0,0,0,.83,2.35,3,3,0,0,0,2.33,1,4.61,4.61,0,0,0,3-1.55,68.48,68.48,0,0,0,12-17.28,79.44,79.44,0,0,0,6.44-19.17c.52-2.65-.95-4.23-2.6-4.47A3.52,3.52,0,0,0,416,290.79Z"/><path class="cls-31" d="M378.92,306.61a34.61,34.61,0,0,1-7.17,5.24,43.67,43.67,0,0,1-4.18,2,46.84,46.84,0,0,1-4.6,1.55,2.27,2.27,0,0,0-1.49,1.52,4.17,4.17,0,0,0-.09,2.36,4,4,0,0,0,1.2,2.09,2.32,2.32,0,0,0,2.23.44c1.83-.46,3.53-1.16,5.27-1.78a50.17,50.17,0,0,0,4.89-2.37,41,41,0,0,0,8.57-6.26C386,308.89,380.84,304.65,378.92,306.61Z"/><path class="cls-32" d="M380.66,282.24a3.32,3.32,0,0,0,3.34-3.35c0-1.29,0-2.51,0-2.7a43.17,43.17,0,0,0-.84-6.11,45.45,45.45,0,0,0-1.65-6c-.41-1.09.65-2.55,2.33-3.25s3.47-.25,4,1a54.4,54.4,0,0,1,2.41,9.82,46.2,46.2,0,0,1,.48,4.85l0,.5v1.51c0,.69-.09,1.5-.17,2.29a51,51,0,0,1-2,9.68,42.16,42.16,0,0,1-3.83,8.69,2.1,2.1,0,0,0,0,2,4.7,4.7,0,0,0,1.59,1.75,4,4,0,0,0,2.25.74,2.1,2.1,0,0,0,1.91-1.1,48.55,48.55,0,0,0,2.9-5.82,60.2,60.2,0,0,0,2.13-6.28,58.7,58.7,0,0,0,1.35-6.56,44.63,44.63,0,0,0,.52-6.39,49,49,0,0,0-.53-6.49,60.18,60.18,0,0,0-1.33-6.65A53.44,53.44,0,0,0,390.67,252a2.67,2.67,0,0,1-.12-2.2,3.77,3.77,0,0,1,1.56-1.94,3.49,3.49,0,0,1,2.49-.49,2.91,2.91,0,0,1,1.93,1.44,61.4,61.4,0,0,1,6,16.42,69.46,69.46,0,0,1,1.31,8.7,42.84,42.84,0,0,1-.13,8.62,62.55,62.55,0,0,1-4.29,16.95,57.6,57.6,0,0,1-4,7.73,53,53,0,0,1-5.21,6.89c-2.73,2.78,1.63,7.85,4.92,4.49a57.59,57.59,0,0,0,10.11-15.82,67.49,67.49,0,0,0,4.9-18c.2-1.54.36-3.09.44-4.66,0-.8.08-1.57.07-2.42v-1.17c0-.4,0-.8,0-1.19a71.16,71.16,0,0,0-1.11-9.26,70.06,70.06,0,0,0-5.71-17.69,3.86,3.86,0,0,1-.25-2.68,3.28,3.28,0,0,1,1.55-2.06,3.47,3.47,0,0,1,4.72,1.85,74.63,74.63,0,0,1,5,13.8,80.19,80.19,0,0,1,2.37,14.39,4.64,4.64,0,0,0,1.17,2.9,3.91,3.91,0,0,0,.51.49,1.13,1.13,0,0,0,.57.3,6.16,6.16,0,0,0,1.22.12,7.12,7.12,0,0,0,1.23-.12,1,1,0,0,0,.56-.31,3,3,0,0,0,.5-.56,4.67,4.67,0,0,0,.89-3.27,85.53,85.53,0,0,0-1.64-11.71c-.45-2.2.49-4.36,2.28-4.84s3.75,1.07,4.24,3.47a92,92,0,0,1,1.82,13.37l.09,1.85,0,1v1.86l0,1.05-.07,1.91c-.14,2.43-.38,4.68-.69,6.94a86.83,86.83,0,0,1-8,26.21c-1.32,2.7-.67,4.85.77,5.69s3.76.23,5.22-2.74a91,91,0,0,0,6.3-16.88A95.22,95.22,0,0,0,437.18,283c.05-.77.1-1.55.14-2.4l0-1.3,0-1.51v-.95l0-1.41c0-.88-.06-1.65-.11-2.44-.2-3.07-.51-5.93-1-8.77a100.76,100.76,0,0,0-4.1-16.77,91.9,91.9,0,0,0-7.39-16.4,83.62,83.62,0,0,0-11.21-15.18,85.9,85.9,0,0,0-7-6.66c-1.25-1-2.52-2-3.79-3s-2.61-1.83-3.93-2.74A82.55,82.55,0,0,0,382.24,195c-3-1.2-5.05,0-5.54,1.59s.39,3.54,3.18,4.65a76.81,76.81,0,0,1,19.23,10.51,74.48,74.48,0,0,1,15.58,15.94c1.61,2.15,1.39,4.77-.15,5.73a3,3,0,0,1-2.69.17,5.8,5.8,0,0,1-2.56-2,68.23,68.23,0,0,0-19.28-18,77.4,77.4,0,0,0-23.74-9.42c-2.61-.62-4.18.87-4.46,2.51s.64,3.43,3,4a69,69,0,0,1,17,6,62.24,62.24,0,0,1,15.06,10.72c1.56,1.59,1.67,3.91.29,5.12a3.63,3.63,0,0,1-4.94-.33,57,57,0,0,0-9.78-7.53l-2.68-1.52c-.89-.52-1.84-.9-2.76-1.36-1.83-.93-3.77-1.58-5.67-2.33a80.27,80.27,0,0,0-23.77-4.12c-4.49-.12-4.32,6.54-.22,6.66a75.11,75.11,0,0,1,19.53,3,56.83,56.83,0,0,1,9.06,3.61,49.25,49.25,0,0,1,8.12,5.26,3,3,0,0,1,.12,4.48,3.27,3.27,0,0,1-4.28.73l-1.28-1c-.44-.31-.91-.61-1.36-.91-1.42-1-3.06,0-3.88,1.49s-1,3.21.15,4a33.53,33.53,0,0,1,6.59,5.76c.8,1,.29,2.65-1.2,3.78s-3.2,1.4-3.81.62a29.45,29.45,0,0,0-13.3-8.49c-2.7-.81-4.21,5.71-2.09,6.34a10.37,10.37,0,0,1,1.3.48c.42.17.87.3,1.26.48.73.41,1.59.68,2.23,1.13a18.67,18.67,0,0,1,3.73,2.62,18.88,18.88,0,0,1,3.07,3.38,24.9,24.9,0,0,1,2.62,4.43,37.2,37.2,0,0,1,2,5.58,39.92,39.92,0,0,1,1.2,6.2c.06.5.11,1,.14,1.44,0,.23,0,.43,0,.61s0,.9,0,1.91a3.32,3.32,0,0,0,3.32,3.32Z"/><path class="cls-33" d="M372.42,293.7a23.22,23.22,0,0,1-2.83,3.39,24.51,24.51,0,0,1-3.5,2.65c-1.56.85,1.25,6.93,3.46,5.71a31.55,31.55,0,0,0,4.64-3.54,28.27,28.27,0,0,0,3.75-4.48c.69-1-.45-2.38-1.9-3.22a6.59,6.59,0,0,0-2.16-.84C373.22,293.27,372.66,293.31,372.42,293.7Z"/><path class="cls-34" d="M258.78,292.16c-.59-2.64-1.06-5.3-1.42-8-.19-1.36-.34-2.73-.46-4.15-.06-.7-.12-1.41-.16-2.17s-.08-1.53-.1-2.46c0-.37,0-.72-.06-1-.55-3.51-6-3.52-6.58,0a11.06,11.06,0,0,0,0,1.17c0,1.05.06,1.93.11,2.72s.11,1.59.17,2.36c.14,1.53.3,3,.5,4.45.39,2.91.88,5.75,1.52,8.58s2.7,4,4.29,3.55S259.37,294.91,258.78,292.16Z"/><path class="cls-35" d="M361,356.66c-1,.14-2,.31-3,.42l-3,.26-3,.26c-1,.08-1.95.08-2.93.12-1.95,0-3.88.15-5.84.1l-5.89-.18a101.1,101.1,0,0,1-24.43-4.36,79,79,0,0,1-23.86-12.15,76.62,76.62,0,0,1-18.45-20,84.26,84.26,0,0,1-6.84-13.09c-1.07-2.67-3.14-3.47-4.71-2.91s-2.62,2.57-1.45,5.48A96.28,96.28,0,0,0,264,323.21,88.61,88.61,0,0,0,272.7,335,83.58,83.58,0,0,0,296,353.44a93,93,0,0,0,26.48,9.13c2.16.35,4.33.7,6.51,1s4.24.41,6.37.6c1.07.11,2.1.13,3.13.17l3.11.09c1,0,2.08.07,3.1.05l3.07-.07,3.45-.11c1.15,0,2.36-.17,3.53-.26l3.55-.32c1.17-.09,2.41-.32,3.61-.48,2.92-.44,4.06-2.31,3.75-4S363.71,356.25,361,356.66Z"/><path class="cls-36" d="M270,273.24V264.9c0-4.29-6.67-4.3-6.67,0v8.34a3.31,3.31,0,0,0,.16,1.08c.48,2.28,1.93,3,3.27,2.92a3.38,3.38,0,0,0,3.07-2.92A3.31,3.31,0,0,0,270,273.24Z"/><path class="cls-37" d="M286.29,320.09a68.74,68.74,0,0,1-5.44-7.7,73.52,73.52,0,0,1-4.25-8.28,79.94,79.94,0,0,1-5.33-17.44,3.5,3.5,0,0,0-3.9-3.14c-1.65.22-3.13,1.77-2.65,4.37a86.92,86.92,0,0,0,5.77,18.89,80.49,80.49,0,0,0,4.65,9,73.11,73.11,0,0,0,6,8.48A4.38,4.38,0,0,0,284,326a3.09,3.09,0,0,0,2.4-.79,3.2,3.2,0,0,0,1-2.27A4.14,4.14,0,0,0,286.29,320.09Z"/><path class="cls-38" d="M369.45,341.32a85.7,85.7,0,0,1-15.87,2.76,118,118,0,0,1-15.73.24l-4-.36-2-.18c-.66-.07-1.33-.2-2-.29l-4-.64-4-.89a72,72,0,0,1-15.59-5.7c-1.45-.74-2.86-1.6-4.29-2.41s-2.75-1.82-4.12-2.73c-2-1.54-4.08-1.07-5.15.21s-1.05,3.46,1.23,5.19a71.42,71.42,0,0,0,16.34,8.79,86.66,86.66,0,0,0,8.58,2.8c2.87.66,5.76,1.38,8.61,1.76a109.65,109.65,0,0,0,16.89,1.3,112.47,112.47,0,0,0,16.81-1.3l2.47-.38,2.5-.53c1.67-.38,3.33-.68,5-1.21C376.46,346.22,374.12,340,369.45,341.32Z"/><path class="cls-39" d="M379.24,323a59.75,59.75,0,0,1-18.85,6.8A89.45,89.45,0,0,1,340,331a80.05,80.05,0,0,1-16.15-2.34A56.86,56.86,0,0,1,309,322.48a48.07,48.07,0,0,1-12-10.4,54.57,54.57,0,0,1-4.67-6.5,60,60,0,0,1-3.66-7.19c-.52-1.11-.91-2.29-1.37-3.43s-.82-2.33-1.15-3.52a66.62,66.62,0,0,1-1.76-7.22,3.21,3.21,0,0,0-3.8-2.56,3.09,3.09,0,0,0-2.75,3.79,72.94,72.94,0,0,0,7.31,21A56.64,56.64,0,0,0,315,332.8a74.26,74.26,0,0,0,17.31,4.31,109.44,109.44,0,0,0,17.63.57A88.92,88.92,0,0,0,367.45,335a60.64,60.64,0,0,0,15.16-6.25,3.11,3.11,0,0,0,1-4.6A3.22,3.22,0,0,0,379.24,323Z"/><path class="cls-40" d="M297.21,280.11c-.18-1.07-.3-2.13-.41-3.17s-.16-2.11-.16-2.62V256.23c0-4.29-6.66-4.3-6.66,0v18.09c0,.87.08,2.1.18,3.25s.26,2.38.46,3.58C291.28,284.87,297.78,283.31,297.21,280.11Z"/><path class="cls-41" d="M344.9,317.8a76.88,76.88,0,0,1-13.79-1.12,48.85,48.85,0,0,1-12-3.88,36.45,36.45,0,0,1-9.56-6.68,40.2,40.2,0,0,1-7.06-9.6,51,51,0,0,1-2.89-6.7c-.54-1.52-2.34-1.86-3.95-1.39s-3,1.83-2.35,3.58a51.9,51.9,0,0,0,2.82,6.67,47.39,47.39,0,0,0,3.61,6.09,43.7,43.7,0,0,0,9.61,9.91,45.42,45.42,0,0,0,12.41,6.44,63.11,63.11,0,0,0,14.41,3c1.44.13,2.87.31,4.35.3s2.94.13,4.41.09C348.88,324.36,348.45,317.7,344.9,317.8Z"/><path class="cls-42" d="M311.8,284.15a42.2,42.2,0,0,1-1.31-5.46c-.15-.92-.3-1.86-.37-2.71-.06-.44-.08-.84-.11-1.19l0-.43c0-.09,0,0,0-.05v-2.74c0-4.29-6.67-4.3-6.67,0v3.05l0,.59c0,.45.06.94.12,1.46.1,1,.27,2.09.44,3.15a48.74,48.74,0,0,0,1.51,6.31C306.36,288.91,312.55,286.4,311.8,284.15Z"/><path class="cls-43" d="M355,303.61a68.11,68.11,0,0,1-11.44.85l-3-.08c-1,0-1.87-.18-2.81-.24-.46,0-.94-.06-1.39-.12l-1.29-.22a22.87,22.87,0,0,1-2.53-.45,31.22,31.22,0,0,1-8.33-2.86,22.55,22.55,0,0,1-5.83-4.39,22.2,22.2,0,0,1-2.72-3.43c-.27-.43-.85-.51-1.52-.43A6,6,0,0,0,312,293a5.16,5.16,0,0,0-1.75,1.57,1.55,1.55,0,0,0-.12,1.74,28.7,28.7,0,0,0,6.43,7.05,31.24,31.24,0,0,0,8.56,4.74,49.26,49.26,0,0,0,11.07,2.57l3.11.28c1,.09,2.15.07,3.23.12l1.62,0,1.65,0c1.09,0,2.21,0,3.28-.1l3.63-.31,3.46-.52C359.15,309.55,357.47,303.09,355,303.61Z"/><path class="cls-44" d="M256.63,153.83V141.47c0-4.3-6.67-4.3-6.67,0v12.36C250,158.12,256.63,158.12,256.63,153.83Z"/><path class="cls-45" d="M256.63,253.18V166.35c0-4.29-6.67-4.3-6.67,0v86.83C250,257.47,256.63,257.48,256.63,253.18Z"/><path class="cls-46" d="M270,139.8v-8.34c0-4.29-6.67-4.3-6.67,0v8.34C263.3,144.09,270,144.1,270,139.8Z"/><path class="cls-47" d="M270,183.48v-32c0-4.29-6.67-4.3-6.67,0v32C263.3,187.78,270,187.78,270,183.48Z"/><path class="cls-48" d="M270,262.52V197c0-4.29-6.67-4.3-6.67,0v65.53C263.3,266.81,270,266.82,270,262.52Z"/><path class="cls-49" d="M283.47,277.58c-.1-1.12-.16-2.23-.16-3.26V151.47c0-4.29-6.67-4.3-6.67,0V274.32c0,1.33.08,2.57.18,3.82a3.11,3.11,0,0,0,3.68,2.92A3.22,3.22,0,0,0,283.47,277.58Z"/><path class="cls-50" d="M296.64,149.3V122.79c0-4.29-6.66-4.3-6.66,0V149.3C290,153.59,296.64,153.6,296.64,149.3Z"/><path class="cls-51" d="M296.64,240.51v-78.2c0-4.29-6.66-4.3-6.66,0v78.2C290,244.8,296.64,244.81,296.64,240.51Z"/><path class="cls-52" d="M310,159.93v-21.8c0-4.29-6.67-4.3-6.67,0v21.8C303.31,164.22,310,164.23,310,159.93Z"/><path class="cls-53" d="M310,255.85v-78c0-4.3-6.67-4.3-6.67,0v78C303.31,260.14,310,260.15,310,255.85Z"/><path class="cls-54" d="M280,0a30,30,0,0,0-30,30v82.61c0,4.29,6.67,4.29,6.67,0V54.86a3.33,3.33,0,1,1,6.66,0V122c0,4.29,6.68,4.3,6.68,0V70.87a3.34,3.34,0,1,1,6.67,0v66.42c0,4.29,6.66,4.3,6.66,0V47.86a3.34,3.34,0,0,1,6.68,0V100c0,4.29,6.67,4.3,6.67,0V60.86a3.33,3.33,0,1,1,6.66,0v54.42c0,4.29,6.67,4.3,6.67,0V30A30,30,0,0,0,280,0Z"/><path class="cls-55" d="M23.68,428.42l7.57-25.73a1.83,1.83,0,0,1,1.9-1.4,1.64,1.64,0,0,1,1.76,1.19l7.5,26.12a1.87,1.87,0,0,1,.09.56,1.83,1.83,0,0,1-.54,1.33,1.67,1.67,0,0,1-1.23.55,1.78,1.78,0,0,1-1.88-1.37l-1.48-5.1H28.76L27.12,430a1.09,1.09,0,0,1-.56.68,1.91,1.91,0,0,1-1.08.33,1.82,1.82,0,0,1-1.37-.56,1.91,1.91,0,0,1-.54-1.37A2.16,2.16,0,0,1,23.68,428.42ZM33.12,410,29.9,420.76h6.36Z"/><path class="cls-55" d="M66.43,431H55.06a1.79,1.79,0,0,1-1.34-.57,1.94,1.94,0,0,1-.54-1.36,1.88,1.88,0,0,1,1.88-1.88h3.76V405.05H55a1.8,1.8,0,0,1-1.33-.55,1.77,1.77,0,0,1-.55-1.33,1.8,1.8,0,0,1,.55-1.33,1.84,1.84,0,0,1,1.33-.55h5.73a1.81,1.81,0,0,1,1.32.56,1.84,1.84,0,0,1,.56,1.32v24.06h3.81a1.84,1.84,0,0,1,1.32.56,1.81,1.81,0,0,1,.56,1.32,2,2,0,0,1-.55,1.36A1.79,1.79,0,0,1,66.43,431Z"/><path class="cls-55" d="M84.54,417.47h7.37a8.21,8.21,0,0,1,1.75.27l0-2.66a1.88,1.88,0,0,0-1.89-1.88H84.58a1.81,1.81,0,0,1-1.32-.56,1.78,1.78,0,0,1-.57-1.32,1.88,1.88,0,0,1,1.89-1.88h7.15a5.45,5.45,0,0,1,4,1.63,5.69,5.69,0,0,1,1.71,4l.47,14.08a1.81,1.81,0,0,1-.56,1.33A1.84,1.84,0,0,1,96,431a1.88,1.88,0,0,1-1.36-.55,1.78,1.78,0,0,1-.56-1.33L90.9,431H84.54a5.65,5.65,0,0,1-5.69-5.69v-2.19a5.7,5.7,0,0,1,5.69-5.69Zm9.4,7.32-.11-1.59a1.92,1.92,0,0,0-.56-1.34,1.8,1.8,0,0,0-1.32-.54H84.53a1.84,1.84,0,0,0-1.33.55,1.8,1.8,0,0,0-.55,1.33v2.11a1.84,1.84,0,0,0,.56,1.32,1.81,1.81,0,0,0,1.32.56h5.31Z"/><path class="cls-55" d="M106.62,429.16V411.32a1.9,1.9,0,0,1,.55-1.36,1.77,1.77,0,0,1,1.33-.57,1.8,1.8,0,0,1,1.33.56,1.88,1.88,0,0,1,.55,1.37v2.35l3.07-2.62a5.81,5.81,0,0,1,3.71-1.61h2.75a5.65,5.65,0,0,1,5.64,5.64v1a1.86,1.86,0,0,1-.55,1.36,1.87,1.87,0,0,1-2.66,0,1.83,1.83,0,0,1-.55-1.33v-1.05a1.88,1.88,0,0,0-1.88-1.88h-2.44a2.82,2.82,0,0,0-1.74.83l-5.35,4.63v10.5a1.81,1.81,0,0,1-.56,1.33,1.87,1.87,0,0,1-2.65,0A1.8,1.8,0,0,1,106.62,429.16Z"/><path class="cls-55" d="M149.48,431H138a1.88,1.88,0,0,1,0-3.76h3.85v-14h-3.81a1.81,1.81,0,0,1-1.33-.56,1.84,1.84,0,0,1-.55-1.32,2,2,0,0,1,.55-1.36,1.79,1.79,0,0,1,1.33-.57h5.73a1.75,1.75,0,0,1,1.33.57,1.9,1.9,0,0,1,.55,1.36v15.91h3.76a1.87,1.87,0,0,1,1.36.55,1.88,1.88,0,0,1-1.31,3.21Zm-7.66-31.35h2a1.88,1.88,0,0,1,1.88,1.88v1.61a1.87,1.87,0,0,1-.55,1.35,1.75,1.75,0,0,1-1.33.57h-2a1.76,1.76,0,0,1-1.35-.58,1.74,1.74,0,0,1-.53-1.3l0-1.65a1.88,1.88,0,0,1,1.88-1.88Z"/><path class="cls-55" d="M179.09,431h-8a5.39,5.39,0,0,1-3.62-1.28l-3.65-3.18a4.84,4.84,0,0,1-1.75-3.94v-4.9a5.08,5.08,0,0,1,2-4.16l3.29-2.84a5.28,5.28,0,0,1,3.4-1.3h8.44a1.89,1.89,0,0,1,1.33,3.22,1.82,1.82,0,0,1-1.33.54h-8.08a2.18,2.18,0,0,0-1.45.6l-3,2.58a2,2,0,0,0-.74,1.68v4.58a1.62,1.62,0,0,0,.58,1.26l3.31,2.82a2.42,2.42,0,0,0,1.66.56h7.7a1.86,1.86,0,0,1,1.32.54,1.82,1.82,0,0,1,.56,1.34,1.88,1.88,0,0,1-1.88,1.88Z"/><path class="cls-55" d="M236.29,421.82v1.65a7.56,7.56,0,0,1-7.52,7.57h-11.5V401.29h11.5a7.55,7.55,0,0,1,7.52,7.57v1.59a7.44,7.44,0,0,1-2.57,5.68A7.53,7.53,0,0,1,236.29,421.82Zm-3.85-11.42v-1.54a3.68,3.68,0,0,0-1.11-2.69,3.62,3.62,0,0,0-2.65-1.12H221v9.11h7.65a3.61,3.61,0,0,0,2.64-1.11A3.57,3.57,0,0,0,232.44,410.4Zm0,13.07v-1.56a3.68,3.68,0,0,0-1.11-2.69,3.58,3.58,0,0,0-2.65-1.12h-7.61v9.13h7.61a3.81,3.81,0,0,0,3.76-3.76Z"/><path class="cls-55" d="M264,416.51v4.54a1.91,1.91,0,0,1-1.88,1.88H248.8V424a2,2,0,0,0,.83,1.63l1.1.92a2.83,2.83,0,0,0,1.7.7h9.67a1.86,1.86,0,0,1,1.32.54A1.9,1.9,0,0,1,262.1,431h-9.92a5.71,5.71,0,0,1-2.07-.42,5.28,5.28,0,0,1-1.6-.86l-1.68-1.48a4.78,4.78,0,0,1-1.31-1.74,4.89,4.89,0,0,1-.52-2.06v-8.62a6.33,6.33,0,0,1,2-3.94l1.57-1.23a5.33,5.33,0,0,1,3.42-1.25h5.28A5.42,5.42,0,0,1,261,411.1l1.41,1.34A5.18,5.18,0,0,1,264,416.51Zm-15.13-.29v2.91h11.41v-2.62a2,2,0,0,0-.65-1.61l-1.1-1a2.54,2.54,0,0,0-1.52-.7h-4.72a2.44,2.44,0,0,0-1.59.61l-1.1.92A1.72,1.72,0,0,0,248.85,416.22Z"/><path class="cls-55" d="M278,409.44h8.62a5.65,5.65,0,0,1,3.56,1.2A3.17,3.17,0,0,1,291.7,413a1.72,1.72,0,0,1-.57,1.32,1.85,1.85,0,0,1-1.26.51,2.17,2.17,0,0,1-1.63-.81,2.15,2.15,0,0,0-1.55-.8h-8.5c-.84,0-1.26.35-1.26,1a1.2,1.2,0,0,0,.84,1.11l10,4.45a5.71,5.71,0,0,1,2.5,2.16,5.88,5.88,0,0,1,1,3.3,5.53,5.53,0,0,1-1.71,4.1,5.39,5.39,0,0,1-3.88,1.68H278a6.27,6.27,0,0,1-3.66-1.19c-1.13-.79-1.69-1.56-1.69-2.31a1.8,1.8,0,0,1,.55-1.3,1.88,1.88,0,0,1,1.42-.58,2.27,2.27,0,0,1,1.53.81,3.22,3.22,0,0,0,2.36.81h7a1.81,1.81,0,0,0,1.39-.64,2.2,2.2,0,0,0,.56-1.47,1.89,1.89,0,0,0-1.26-1.83l-10.09-4.55a4.89,4.89,0,0,1-2.24-1.88,4.61,4.61,0,0,1-.78-2.5,4.86,4.86,0,0,1,1.4-3.49A4.54,4.54,0,0,1,278,409.44Z"/><path class="cls-55" d="M300.36,429.16v-26a1.79,1.79,0,0,1,.55-1.3,1.87,1.87,0,0,1,1.33-.53,1.86,1.86,0,0,1,1.88,1.88v9.49l3-2a7,7,0,0,1,3.67-1.3h2.32a5.47,5.47,0,0,1,4,1.64,5.71,5.71,0,0,1,1.72,4l.47,14.08a1.76,1.76,0,0,1-.54,1.33,1.87,1.87,0,0,1-1.34.55,1.75,1.75,0,0,1-1.32-.57,1.94,1.94,0,0,1-.56-1.31L315.07,415a2,2,0,0,0-.58-1.32,1.86,1.86,0,0,0-1.35-.56H311a3,3,0,0,0-1.57.56l-5.35,3.49v12a1.88,1.88,0,1,1-3.76,0Z"/><path class="cls-55" d="M333.7,417.47h7.37a8.3,8.3,0,0,1,1.75.27l0-2.66a1.88,1.88,0,0,0-1.89-1.88h-7.15a1.85,1.85,0,0,1-1.33-.56,1.81,1.81,0,0,1-.56-1.32,1.88,1.88,0,0,1,1.89-1.88h7.15a5.45,5.45,0,0,1,4,1.63,5.69,5.69,0,0,1,1.71,4l.47,14.08a1.81,1.81,0,0,1-.56,1.33,1.84,1.84,0,0,1-1.32.55,1.88,1.88,0,0,1-1.36-.55,1.78,1.78,0,0,1-.56-1.33L340.06,431H333.7a5.67,5.67,0,0,1-5.7-5.69v-2.19a5.7,5.7,0,0,1,5.7-5.69Zm9.4,7.32L343,423.2a1.92,1.92,0,0,0-.56-1.34,1.8,1.8,0,0,0-1.32-.54h-7.42a1.83,1.83,0,0,0-1.33.55,1.8,1.8,0,0,0-.55,1.33v2.11a1.84,1.84,0,0,0,.56,1.32,1.81,1.81,0,0,0,1.32.56H339Z"/><path class="cls-55" d="M355.78,429.16V411.32a1.9,1.9,0,0,1,.55-1.36,1.77,1.77,0,0,1,1.33-.57A1.81,1.81,0,0,1,359,410a1.88,1.88,0,0,1,.55,1.37v2.35l3.06-2.62a5.85,5.85,0,0,1,3.72-1.61h2.75a5.65,5.65,0,0,1,5.64,5.64v1a1.86,1.86,0,0,1-.55,1.36,1.88,1.88,0,0,1-3.21-1.32v-1.05a1.88,1.88,0,0,0-1.88-1.88h-2.44a2.82,2.82,0,0,0-1.74.83l-5.35,4.63v10.5a1.81,1.81,0,0,1-.56,1.33,1.85,1.85,0,0,1-1.32.55,1.83,1.83,0,0,1-1.33-.55A1.8,1.8,0,0,1,355.78,429.16Z"/><path class="cls-55" d="M389.07,417.47h7.37a8.3,8.3,0,0,1,1.75.27l-.05-2.66a1.88,1.88,0,0,0-1.88-1.88h-7.15a1.85,1.85,0,0,1-1.33-.56,1.81,1.81,0,0,1-.56-1.32,1.79,1.79,0,0,1,.55-1.33,1.81,1.81,0,0,1,1.34-.55h7.15a5.41,5.41,0,0,1,4,1.63,5.7,5.7,0,0,1,1.72,4l.47,14.08a1.81,1.81,0,0,1-.56,1.33,1.84,1.84,0,0,1-1.32.55,1.92,1.92,0,0,1-1.37-.55,1.81,1.81,0,0,1-.56-1.33L395.43,431h-6.36a5.67,5.67,0,0,1-5.7-5.69v-2.19a5.7,5.7,0,0,1,5.7-5.69Zm9.4,7.32-.11-1.59a2,2,0,0,0-.56-1.34,1.8,1.8,0,0,0-1.33-.54h-7.41a1.83,1.83,0,0,0-1.33.55,1.8,1.8,0,0,0-.55,1.33v2.11a1.91,1.91,0,0,0,1.88,1.88h5.31Z"/><path class="cls-55" d="M411.1,429.16v-26a1.75,1.75,0,0,1,.55-1.3,1.87,1.87,0,0,1,1.33-.53,1.88,1.88,0,0,1,1.88,1.88v9.49l3-2a7.1,7.1,0,0,1,3.67-1.3h2.33a5.43,5.43,0,0,1,4,1.64,5.68,5.68,0,0,1,1.73,4l.47,14.08a1.76,1.76,0,0,1-.54,1.33,1.87,1.87,0,0,1-1.34.55,1.72,1.72,0,0,1-1.32-.57,1.94,1.94,0,0,1-.56-1.31L425.81,415a1.92,1.92,0,0,0-.59-1.32,1.84,1.84,0,0,0-1.34-.56h-2.1a3,3,0,0,0-1.57.56l-5.35,3.49v12a1.8,1.8,0,0,1-.55,1.33,1.88,1.88,0,0,1-2.66,0A1.8,1.8,0,0,1,411.1,429.16Z"/></g></g></svg>