<svg xmlns="http://www.w3.org/2000/svg" viewBox="0 0 37.54 36.12"><defs><style>.cls-1{fill:#398bce;}</style></defs><title>icon1</title><g id="Layer_1" data-name="Layer 1"><path class="cls-1" d="M349.37,174.7c-1.65,0-2.48.76-2.48,2.28v8.68a3,3,0,0,1-2.64,3.28,2.91,2.91,0,0,1,2.64,3.24v9.4a1.65,1.65,0,0,0,.58,1.44,4.23,4.23,0,0,0,2.22.4v3.72h-1.36c-3.62,0-5.44-1.76-5.44-5.28v-8.64a2.81,2.81,0,0,0-.48-1.86,1.93,1.93,0,0,0-1.52-.54h-1V187.1h1a1.9,1.9,0,0,0,1.52-.56,3,3,0,0,0,.48-1.92V176.3c0-3.52,1.82-5.28,5.44-5.28h1.36v3.72A.92.92,0,0,0,349.37,174.7Z" transform="translate(-339.93 -171.02)"/><path class="cls-1" d="M369.07,207.14h-1.36v-3.72a4.23,4.23,0,0,0,2.22-.4,1.65,1.65,0,0,0,.58-1.44v-9.4a2.91,2.91,0,0,1,2.64-3.24,3,3,0,0,1-2.64-3.28V177a2.17,2.17,0,0,0-.66-1.78,2.06,2.06,0,0,0-1.3-.54h-.12l-.72.08V171h1.36q5.44,0,5.44,5.28v8.32a3,3,0,0,0,.48,1.92,1.9,1.9,0,0,0,1.52.56h1v3.72h-1a1.93,1.93,0,0,0-1.52.54,2.81,2.81,0,0,0-.48,1.86v8.64Q374.51,207.14,369.07,207.14Z" transform="translate(-339.93 -171.02)"/></g></svg>